<svg width="25" height="25" viewBox="0 0 25 25" fill="none" xmlns="http://www.w3.org/2000/svg">
<path d="M12.5 0C19.4037 0 25 5.59625 25 12.5C25 19.4037 19.4037 25 12.5 25C5.59625 25 0 19.4037 0 12.5C0 5.59625 5.59625 0 12.5 0ZM12.5 2.5C9.84783 2.5 7.3043 3.55357 5.42893 5.42893C3.55357 7.3043 2.5 9.84783 2.5 12.5C2.5 15.1522 3.55357 17.6957 5.42893 19.5711C7.3043 21.4464 9.84783 22.5 12.5 22.5C15.1522 22.5 17.6957 21.4464 19.5711 19.5711C21.4464 17.6957 22.5 15.1522 22.5 12.5C22.5 9.84783 21.4464 7.3043 19.5711 5.42893C17.6957 3.55357 15.1522 2.5 12.5 2.5ZM12.5 17.5C12.8315 17.5 13.1495 17.6317 13.3839 17.8661C13.6183 18.1005 13.75 18.4185 13.75 18.75C13.75 19.0815 13.6183 19.3995 13.3839 19.6339C13.1495 19.8683 12.8315 20 12.5 20C12.1685 20 11.8505 19.8683 11.6161 19.6339C11.3817 19.3995 11.25 19.0815 11.25 18.75C11.25 18.4185 11.3817 18.1005 11.6161 17.8661C11.8505 17.6317 12.1685 17.5 12.5 17.5ZM12.5 5.625C13.5528 5.62503 14.5728 5.99169 15.3847 6.662C16.1966 7.33231 16.7498 8.26442 16.9491 9.29822C17.1485 10.332 16.9816 11.403 16.4772 12.3271C15.9728 13.2513 15.1623 13.971 14.185 14.3625C14.041 14.4172 13.9108 14.503 13.8038 14.6138C13.7488 14.6763 13.74 14.7563 13.7413 14.8388L13.75 15C13.7496 15.3186 13.6277 15.625 13.4089 15.8567C13.1902 16.0884 12.8913 16.2278 12.5733 16.2465C12.2552 16.2651 11.942 16.1617 11.6977 15.9572C11.4534 15.7527 11.2964 15.4626 11.2587 15.1462L11.25 15V14.6875C11.25 13.2463 12.4125 12.3812 13.255 12.0425C13.5979 11.9056 13.897 11.6778 14.1202 11.3837C14.3435 11.0896 14.4823 10.7403 14.522 10.3732C14.5616 10.0061 14.5006 9.63516 14.3453 9.30018C14.19 8.96519 13.9464 8.67883 13.6407 8.47185C13.3349 8.26486 12.9786 8.14507 12.6099 8.12534C12.2412 8.1056 11.8741 8.18667 11.548 8.35984C11.2219 8.53301 10.9491 8.79173 10.759 9.10822C10.5688 9.42472 10.4685 9.78703 10.4688 10.1562C10.4688 10.4878 10.3371 10.8057 10.1026 11.0401C9.86821 11.2746 9.55027 11.4062 9.21875 11.4062C8.88723 11.4062 8.56929 11.2746 8.33487 11.0401C8.10045 10.8057 7.96875 10.4878 7.96875 10.1562C7.96875 8.95449 8.44615 7.80195 9.29592 6.95217C10.1457 6.1024 11.2982 5.625 12.5 5.625Z" fill="black"/>
</svg>
