<svg width="30" height="31" viewBox="0 0 30 31" fill="none" xmlns="http://www.w3.org/2000/svg">
<path fill-rule="evenodd" clip-rule="evenodd" d="M21.8408 8.69028C21.9626 8.57314 22.1062 8.48114 22.2636 8.41954C22.4209 8.35795 22.5888 8.32796 22.7577 8.33131C22.9267 8.33465 23.0933 8.37125 23.248 8.43903C23.4028 8.5068 23.5427 8.60441 23.6597 8.72628L29.6426 14.9611C29.8721 15.2005 30.0002 15.5193 30.0002 15.8509C30.0002 16.1824 29.8721 16.5012 29.6426 16.7406L23.6597 22.9754C23.5428 23.0972 23.403 23.1948 23.2483 23.2625C23.0937 23.3303 22.9272 23.367 22.7584 23.3704C22.5895 23.3738 22.4217 23.3439 22.2644 23.2825C22.1071 23.2211 21.9635 23.1292 21.8417 23.0123C21.7199 22.8953 21.6223 22.7555 21.5546 22.6009C21.4868 22.4462 21.4502 22.2797 21.4468 22.1109C21.4433 21.9421 21.4732 21.7743 21.5346 21.617C21.5961 21.4597 21.6879 21.3161 21.8048 21.1943L25.698 17.1366H13.7545C13.4135 17.1366 13.0865 17.0011 12.8453 16.76C12.6042 16.5189 12.4688 16.1918 12.4688 15.8509C12.4688 15.5099 12.6042 15.1828 12.8453 14.9417C13.0865 14.7006 13.4135 14.5651 13.7545 14.5651H25.6997L21.8048 10.5074C21.569 10.2614 21.4405 9.93178 21.4476 9.59104C21.4546 9.25031 21.5967 8.92632 21.8426 8.69028" fill="#7B9D9F"/>
<path fill-rule="evenodd" clip-rule="evenodd" d="M0 2.1363C0 1.79531 0.13546 1.46828 0.376581 1.22716C0.617702 0.986045 0.944732 0.850586 1.28573 0.850586H17.4945C17.8355 0.850586 18.1625 0.986045 18.4036 1.22716C18.6447 1.46828 18.7802 1.79531 18.7802 2.1363V7.27916C18.7802 7.62015 18.6447 7.94718 18.4036 8.18829C18.1625 8.42941 17.8355 8.56487 17.4945 8.56487C17.1535 8.56487 16.8264 8.42941 16.5853 8.18829C16.3442 7.94718 16.2087 7.62015 16.2087 7.27916V3.42201H2.57146V28.2792H16.207V24.422C16.207 24.081 16.3425 23.754 16.5836 23.5129C16.8247 23.2718 17.1518 23.1363 17.4928 23.1363C17.8338 23.1363 18.1608 23.2718 18.4019 23.5129C18.643 23.754 18.7785 24.081 18.7785 24.422V29.5649C18.7785 29.9059 18.643 30.2329 18.4019 30.474C18.1608 30.7151 17.8338 30.8506 17.4928 30.8506H1.28573C0.944732 30.8506 0.617702 30.7151 0.376581 30.474C0.13546 30.2329 0 29.9059 0 29.5649V2.1363Z" fill="#7B9D9F"/>
</svg>
