<svg width="22" height="22" viewBox="0 0 22 22" fill="none" xmlns="http://www.w3.org/2000/svg">
<path d="M9.6875 11V2.25C9.6875 1.9019 9.82578 1.56806 10.0719 1.32192C10.3181 1.07578 10.6519 0.9375 11 0.9375C11.3481 0.9375 11.6819 1.07578 11.9281 1.32192C12.1742 1.56806 12.3125 1.9019 12.3125 2.25V11C12.3125 11.3481 12.1742 11.6819 11.9281 11.9281C11.6819 12.1742 11.3481 12.3125 11 12.3125C10.6519 12.3125 10.3181 12.1742 10.0719 11.9281C9.82578 11.6819 9.6875 11.3481 9.6875 11ZM16.9664 2.03125C16.675 1.8518 16.325 1.79329 15.991 1.8682C15.657 1.9431 15.3655 2.1455 15.1787 2.43223C14.9918 2.71897 14.9243 3.06736 14.9906 3.40314C15.0569 3.73891 15.2518 4.03551 15.5336 4.22969C17.9355 5.79047 19.3125 8.26562 19.3125 11C19.3125 13.2046 18.4367 15.3189 16.8778 16.8778C15.3189 18.4367 13.2046 19.3125 11 19.3125C8.79539 19.3125 6.68107 18.4367 5.12218 16.8778C3.56328 15.3189 2.6875 13.2046 2.6875 11C2.6875 8.26562 4.06453 5.79047 6.46641 4.22422C6.73325 4.02423 6.91396 3.73016 6.97184 3.40176C7.02972 3.07335 6.96042 2.73522 6.77802 2.45606C6.59563 2.17689 6.31381 1.97762 5.98981 1.89872C5.66581 1.81982 5.32392 1.8672 5.03359 2.03125C1.87375 4.08531 0.0625 7.35672 0.0625 11C0.0625 13.9008 1.21484 16.6828 3.26602 18.734C5.3172 20.7852 8.09919 21.9375 11 21.9375C13.9008 21.9375 16.6828 20.7852 18.734 18.734C20.7852 16.6828 21.9375 13.9008 21.9375 11C21.9375 7.35672 20.1263 4.08531 16.9664 2.03125Z" fill="#C62727"/>
</svg>
