<svg width="10" height="10" viewBox="0 0 10 10" fill="none" xmlns="http://www.w3.org/2000/svg">
<path fill-rule="evenodd" clip-rule="evenodd" d="M3.33333 2.91667C3.33333 2.47464 3.50893 2.05072 3.82149 1.73816C4.13405 1.42559 4.55797 1.25 5 1.25C5.44203 1.25 5.86595 1.42559 6.17851 1.73816C6.49107 2.05072 6.66667 2.47464 6.66667 2.91667C6.66667 3.35869 6.49107 3.78262 6.17851 4.09518C5.86595 4.40774 5.44203 4.58333 5 4.58333C4.55797 4.58333 4.13405 4.40774 3.82149 4.09518C3.50893 3.78262 3.33333 3.35869 3.33333 2.91667ZM3.33333 5.41667C2.7808 5.41667 2.25089 5.63616 1.86019 6.02686C1.46949 6.41756 1.25 6.94747 1.25 7.5C1.25 7.83152 1.3817 8.14946 1.61612 8.38388C1.85054 8.6183 2.16848 8.75 2.5 8.75H7.5C7.83152 8.75 8.14946 8.6183 8.38388 8.38388C8.6183 8.14946 8.75 7.83152 8.75 7.5C8.75 6.94747 8.53051 6.41756 8.13981 6.02686C7.7491 5.63616 7.2192 5.41667 6.66667 5.41667H3.33333Z" fill="#85B6FF"/>
</svg>
