<svg width="21" height="21" viewBox="0 0 21 21" fill="none" xmlns="http://www.w3.org/2000/svg">
<path d="M10.5 10.5C9.05625 10.5 7.82031 9.98594 6.79219 8.95781C5.76406 7.92969 5.25 6.69375 5.25 5.25C5.25 3.80625 5.76406 2.57031 6.79219 1.54219C7.82031 0.514063 9.05625 0 10.5 0C11.9437 0 13.1797 0.514063 14.2078 1.54219C15.2359 2.57031 15.75 3.80625 15.75 5.25C15.75 6.69375 15.2359 7.92969 14.2078 8.95781C13.1797 9.98594 11.9437 10.5 10.5 10.5ZM0 21V17.325C0 16.5813 0.191625 15.8979 0.574875 15.2749C0.958125 14.6519 1.4665 14.1759 2.1 13.8469C3.45625 13.1688 4.83437 12.6604 6.23437 12.3217C7.63437 11.9831 9.05625 11.8134 10.5 11.8125C11.9437 11.8116 13.3656 11.9814 14.7656 12.3217C16.1656 12.6621 17.5437 13.1705 18.9 13.8469C19.5344 14.175 20.0432 14.651 20.4264 15.2749C20.8097 15.8987 21.0009 16.5821 21 17.325V21H0ZM2.625 18.375H18.375V17.325C18.375 17.0844 18.3151 16.8656 18.1952 16.6688C18.0753 16.4719 17.9165 16.3188 17.7187 16.2094C16.5375 15.6188 15.3453 15.176 14.1422 14.8811C12.9391 14.5863 11.725 14.4384 10.5 14.4375C9.275 14.4366 8.06094 14.5845 6.85781 14.8811C5.65469 15.1778 4.4625 15.6205 3.28125 16.2094C3.08437 16.3188 2.92556 16.4719 2.80481 16.6688C2.68406 16.8656 2.62412 17.0844 2.625 17.325V18.375ZM10.5 7.875C11.2219 7.875 11.8401 7.61819 12.3546 7.10456C12.8691 6.59094 13.1259 5.97275 13.125 5.25C13.1241 4.52725 12.8673 3.9095 12.3546 3.39675C11.8418 2.884 11.2236 2.62675 10.5 2.625C9.77637 2.62325 9.15862 2.8805 8.64675 3.39675C8.13487 3.913 7.87762 4.53075 7.875 5.25C7.87237 5.96925 8.12962 6.58744 8.64675 7.10456C9.16387 7.62169 9.78162 7.8785 10.5 7.875Z" fill="#4FBDB7"/>
</svg>
