<svg width="26" height="25" viewBox="0 0 26 25" fill="none" xmlns="http://www.w3.org/2000/svg">
<path fill-rule="evenodd" clip-rule="evenodd" d="M13 0C11.8579 0 10.7377 0.312936 9.76094 0.904818L3.51094 4.69232C2.59186 5.24926 1.8319 6.03379 1.30448 6.97012C0.777062 7.90645 0.499982 8.96295 0.5 10.0376V17.9026C0.5 19.5602 1.15848 21.1499 2.33058 22.322C3.50268 23.4941 5.0924 24.1526 6.75 24.1526H19.25C20.9076 24.1526 22.4973 23.4941 23.6694 22.322C24.8415 21.1499 25.5 19.5602 25.5 17.9026V10.0364C25.4998 8.96196 25.2225 7.90548 24.6951 6.96944C24.1677 6.0334 23.4079 5.24914 22.4891 4.69233L16.2391 0.904828C15.2623 0.312946 14.1421 0 13 0ZM11.0566 3.04288C11.6426 2.68776 12.3148 2.5 13 2.5C13.6852 2.5 14.3574 2.68776 14.9434 3.04288L21.1934 6.83038C21.7447 7.16447 22.2006 7.63504 22.5171 8.19666C22.8335 8.7582 22.9998 9.39182 23 10.0364V17.9026C23 18.8972 22.6049 19.851 21.9016 20.5543C21.1984 21.2575 20.2446 21.6526 19.25 21.6526H18V17.9026C18 16.5765 17.4732 15.3048 16.5355 14.3671C15.5978 13.4294 14.3261 12.9026 13 12.9026C11.6739 12.9026 10.4021 13.4294 9.46446 14.3671C8.52678 15.3048 8 16.5765 8 17.9026V21.6526H6.75C5.75544 21.6526 4.80161 21.2575 4.09835 20.5543C3.39509 19.851 3 18.8972 3 17.9026V10.0376C2.99999 9.39281 3.16623 8.75887 3.48269 8.19707C3.79914 7.63527 4.25511 7.16456 4.80656 6.83039L11.0566 3.04288ZM14.7678 16.1348C15.2366 16.6037 15.5 17.2396 15.5 17.9026V21.6526H10.5V17.9026C10.5 17.2396 10.7634 16.6037 11.2322 16.1348C11.7011 15.666 12.337 15.4026 13 15.4026C13.663 15.4026 14.2989 15.666 14.7678 16.1348Z" fill="#979797"/>
</svg>
