<svg width="27" height="28" viewBox="0 0 27 28" fill="none" xmlns="http://www.w3.org/2000/svg">
<path d="M21 9.35059C21 14.9756 13.5 20.6006 13.5 20.6006C13.5 20.6006 6 14.9756 6 9.35059C6 7.36146 6.79018 5.45381 8.1967 4.04729C9.60322 2.64076 11.5109 1.85059 13.5 1.85059C15.4891 1.85059 17.3968 2.64076 18.8033 4.04729C20.2098 5.45381 21 7.36146 21 9.35059Z" stroke="#979797" stroke-width="2" stroke-linecap="round" stroke-linejoin="round"/>
<path d="M13.5 11.8506C14.8807 11.8506 16 10.7313 16 9.35059C16 7.96987 14.8807 6.85059 13.5 6.85059C12.1193 6.85059 11 7.96987 11 9.35059C11 10.7313 12.1193 11.8506 13.5 11.8506Z" stroke="#979797" stroke-width="2" stroke-linecap="round" stroke-linejoin="round"/>
<path d="M9.54375 16.8506H4.75C4.49567 16.8644 4.25164 16.9557 4.05058 17.112C3.84952 17.2684 3.70104 17.4825 3.625 17.7256L1.125 25.2256C1 25.3506 1 25.4756 1 25.6006C1 26.3506 1.5 26.8506 2.25 26.8506H24.75C25.5 26.8506 26 26.3506 26 25.6006C26 25.4756 26 25.3506 25.875 25.2256L23.375 17.7256C23.299 17.4825 23.1505 17.2684 22.9494 17.112C22.7484 16.9557 22.5043 16.8644 22.25 16.8506H17.4562" stroke="#979797" stroke-width="2" stroke-linecap="round" stroke-linejoin="round"/>
</svg>
