<svg width="25" height="26" viewBox="0 0 25 26" fill="none" xmlns="http://www.w3.org/2000/svg">
<path d="M12.5 15.8506C12.7472 15.8506 12.9889 15.7773 13.1945 15.6399C13.4 15.5026 13.5602 15.3073 13.6549 15.0789C13.7495 14.8505 13.7742 14.5992 13.726 14.3567C13.6778 14.1142 13.5587 13.8915 13.3839 13.7167C13.2091 13.5419 12.9863 13.4228 12.7439 13.3746C12.5014 13.3264 12.2501 13.3511 12.0216 13.4457C11.7932 13.5403 11.598 13.7006 11.4607 13.9061C11.3233 14.1117 11.25 14.3534 11.25 14.6006C11.25 14.9321 11.3817 15.25 11.6161 15.4845C11.8505 15.7189 12.1685 15.8506 12.5 15.8506ZM18.75 15.8506C18.9972 15.8506 19.2389 15.7773 19.4445 15.6399C19.65 15.5026 19.8102 15.3073 19.9049 15.0789C19.9995 14.8505 20.0242 14.5992 19.976 14.3567C19.9277 14.1142 19.8087 13.8915 19.6339 13.7167C19.4591 13.5419 19.2363 13.4228 18.9939 13.3746C18.7514 13.3264 18.5001 13.3511 18.2716 13.4457C18.0432 13.5403 17.848 13.7006 17.7107 13.9061C17.5733 14.1117 17.5 14.3534 17.5 14.6006C17.5 14.9321 17.6317 15.25 17.8661 15.4845C18.1005 15.7189 18.4185 15.8506 18.75 15.8506ZM12.5 20.8506C12.7472 20.8506 12.9889 20.7773 13.1945 20.6399C13.4 20.5026 13.5602 20.3073 13.6549 20.0789C13.7495 19.8505 13.7742 19.5992 13.726 19.3567C13.6778 19.1142 13.5587 18.8915 13.3839 18.7167C13.2091 18.5419 12.9863 18.4228 12.7439 18.3746C12.5014 18.3264 12.2501 18.3511 12.0216 18.4457C11.7932 18.5403 11.598 18.7006 11.4607 18.9061C11.3233 19.1117 11.25 19.3534 11.25 19.6006C11.25 19.9321 11.3817 20.25 11.6161 20.4845C11.8505 20.7189 12.1685 20.8506 12.5 20.8506ZM18.75 20.8506C18.9972 20.8506 19.2389 20.7773 19.4445 20.6399C19.65 20.5026 19.8102 20.3073 19.9049 20.0789C19.9995 19.8505 20.0242 19.5992 19.976 19.3567C19.9277 19.1142 19.8087 18.8915 19.6339 18.7167C19.4591 18.5419 19.2363 18.4228 18.9939 18.3746C18.7514 18.3264 18.5001 18.3511 18.2716 18.4457C18.0432 18.5403 17.848 18.7006 17.7107 18.9061C17.5733 19.1117 17.5 19.3534 17.5 19.6006C17.5 19.9321 17.6317 20.25 17.8661 20.4845C18.1005 20.7189 18.4185 20.8506 18.75 20.8506ZM6.25 15.8506C6.49723 15.8506 6.7389 15.7773 6.94446 15.6399C7.15002 15.5026 7.31024 15.3073 7.40485 15.0789C7.49946 14.8505 7.52421 14.5992 7.47598 14.3567C7.42775 14.1142 7.3087 13.8915 7.13388 13.7167C6.95907 13.5419 6.73634 13.4228 6.49386 13.3746C6.25139 13.3264 6.00005 13.3511 5.77165 13.4457C5.54324 13.5403 5.34801 13.7006 5.21066 13.9061C5.07331 14.1117 5 14.3534 5 14.6006C5 14.9321 5.1317 15.25 5.36612 15.4845C5.60054 15.7189 5.91848 15.8506 6.25 15.8506ZM21.25 3.35059H20V2.10059C20 1.76907 19.8683 1.45112 19.6339 1.2167C19.3995 0.982282 19.0815 0.850586 18.75 0.850586C18.4185 0.850586 18.1005 0.982282 17.8661 1.2167C17.6317 1.45112 17.5 1.76907 17.5 2.10059V3.35059H7.5V2.10059C7.5 1.76907 7.3683 1.45112 7.13388 1.2167C6.89946 0.982282 6.58152 0.850586 6.25 0.850586C5.91848 0.850586 5.60054 0.982282 5.36612 1.2167C5.1317 1.45112 5 1.76907 5 2.10059V3.35059H3.75C2.75544 3.35059 1.80161 3.74567 1.09835 4.44894C0.395088 5.1522 0 6.10602 0 7.10059V22.1006C0 23.0951 0.395088 24.049 1.09835 24.7522C1.80161 25.4555 2.75544 25.8506 3.75 25.8506H21.25C22.2446 25.8506 23.1984 25.4555 23.9017 24.7522C24.6049 24.049 25 23.0951 25 22.1006V7.10059C25 6.10602 24.6049 5.1522 23.9017 4.44894C23.1984 3.74567 22.2446 3.35059 21.25 3.35059ZM22.5 22.1006C22.5 22.4321 22.3683 22.75 22.1339 22.9845C21.8995 23.2189 21.5815 23.3506 21.25 23.3506H3.75C3.41848 23.3506 3.10054 23.2189 2.86612 22.9845C2.6317 22.75 2.5 22.4321 2.5 22.1006V10.8506H22.5V22.1006ZM22.5 8.35059H2.5V7.10059C2.5 6.76907 2.6317 6.45112 2.86612 6.2167C3.10054 5.98228 3.41848 5.85059 3.75 5.85059H21.25C21.5815 5.85059 21.8995 5.98228 22.1339 6.2167C22.3683 6.45112 22.5 6.76907 22.5 7.10059V8.35059ZM6.25 20.8506C6.49723 20.8506 6.7389 20.7773 6.94446 20.6399C7.15002 20.5026 7.31024 20.3073 7.40485 20.0789C7.49946 19.8505 7.52421 19.5992 7.47598 19.3567C7.42775 19.1142 7.3087 18.8915 7.13388 18.7167C6.95907 18.5419 6.73634 18.4228 6.49386 18.3746C6.25139 18.3264 6.00005 18.3511 5.77165 18.4457C5.54324 18.5403 5.34801 18.7006 5.21066 18.9061C5.07331 19.1117 5 19.3534 5 19.6006C5 19.9321 5.1317 20.25 5.36612 20.4845C5.60054 20.7189 5.91848 20.8506 6.25 20.8506Z" fill="#979797"/>
</svg>
