<svg width="25" height="25" viewBox="0 0 25 25" fill="none" xmlns="http://www.w3.org/2000/svg">
<path fill-rule="evenodd" clip-rule="evenodd" d="M12.5 0.697998C11.3579 0.697998 10.2377 1.01093 9.26094 1.60282L3.01094 5.39032C2.09186 5.94726 1.3319 6.73179 0.804482 7.66812C0.277062 8.60445 -1.78805e-05 9.66095 8.65157e-10 10.7356V18.6006C8.65157e-10 20.2582 0.65848 21.8479 1.83058 23.02C3.00268 24.1921 4.5924 24.8506 6.25 24.8506H18.75C20.4076 24.8506 21.9973 24.1921 23.1694 23.02C24.3415 21.8479 25 20.2582 25 18.6006V10.7344C24.9998 9.65996 24.7225 8.60348 24.1951 7.66744C23.6677 6.7314 22.9079 5.94713 21.9891 5.39033L15.7391 1.60283C14.7623 1.01094 13.6421 0.697998 12.5 0.697998ZM10.5566 3.74088C11.1426 3.38576 11.8148 3.198 12.5 3.198C13.1852 3.198 13.8574 3.38576 14.4434 3.74088L20.6934 7.52838C21.2447 7.86246 21.7006 8.33304 22.0171 8.89466C22.3335 9.4562 22.4998 10.0898 22.5 10.7344V18.6006C22.5 19.5952 22.1049 20.549 21.4016 21.2523C20.6984 21.9555 19.7446 22.3506 18.75 22.3506H17.5V18.6006C17.5 17.2745 16.9732 16.0028 16.0355 15.0651C15.0978 14.1274 13.8261 13.6006 12.5 13.6006C11.1739 13.6006 9.90215 14.1274 8.96446 15.0651C8.02678 16.0028 7.5 17.2745 7.5 18.6006V22.3506H6.25C5.25544 22.3506 4.30161 21.9555 3.59835 21.2523C2.89509 20.549 2.5 19.5952 2.5 18.6006V10.7356C2.49999 10.0908 2.66623 9.45687 2.98269 8.89507C3.29914 8.33327 3.75511 7.86256 4.30656 7.52839L10.5566 3.74088ZM14.2678 16.8328C14.7366 17.3017 15 17.9376 15 18.6006V22.3506H10V18.6006C10 17.9376 10.2634 17.3017 10.7322 16.8328C11.2011 16.364 11.837 16.1006 12.5 16.1006C13.163 16.1006 13.7989 16.364 14.2678 16.8328Z" fill="black"/>
</svg>
