<svg width="28" height="28" viewBox="0 0 28 28" fill="none" xmlns="http://www.w3.org/2000/svg">
<path d="M21.5 8.65283C21.5 14.2778 14 19.9028 14 19.9028C14 19.9028 6.5 14.2778 6.5 8.65283C6.5 6.66371 7.29018 4.75605 8.6967 3.34953C10.1032 1.94301 12.0109 1.15283 14 1.15283C15.9891 1.15283 17.8968 1.94301 19.3033 3.34953C20.7098 4.75605 21.5 6.66371 21.5 8.65283Z" stroke="black" stroke-width="2" stroke-linecap="round" stroke-linejoin="round"/>
<path d="M14 11.1528C15.3807 11.1528 16.5 10.0335 16.5 8.65283C16.5 7.27212 15.3807 6.15283 14 6.15283C12.6193 6.15283 11.5 7.27212 11.5 8.65283C11.5 10.0335 12.6193 11.1528 14 11.1528Z" stroke="black" stroke-width="2" stroke-linecap="round" stroke-linejoin="round"/>
<path d="M10.0438 16.1528H5.25C4.99567 16.1667 4.75164 16.2579 4.55058 16.4143C4.34952 16.5707 4.20104 16.7847 4.125 17.0278L1.625 24.5278C1.5 24.6528 1.5 24.7778 1.5 24.9028C1.5 25.6528 2 26.1528 2.75 26.1528H25.25C26 26.1528 26.5 25.6528 26.5 24.9028C26.5 24.7778 26.5 24.6528 26.375 24.5278L23.875 17.0278C23.799 16.7847 23.6505 16.5707 23.4494 16.4143C23.2484 16.2579 23.0043 16.1667 22.75 16.1528H17.9562" stroke="black" stroke-width="2" stroke-linecap="round" stroke-linejoin="round"/>
</svg>
