<svg width="26" height="26" viewBox="0 0 26 26" fill="none" xmlns="http://www.w3.org/2000/svg">
<path d="M13 15.1528C13.2472 15.1528 13.4889 15.0795 13.6945 14.9422C13.9 14.8048 14.0602 14.6096 14.1549 14.3812C14.2495 14.1528 14.2742 13.9014 14.226 13.659C14.1778 13.4165 14.0587 13.1938 13.8839 13.0189C13.7091 12.8441 13.4863 12.7251 13.2439 12.6769C13.0014 12.6286 12.7501 12.6534 12.5216 12.748C12.2932 12.8426 12.098 13.0028 11.9607 13.2084C11.8233 13.4139 11.75 13.6556 11.75 13.9028C11.75 14.2344 11.8817 14.5523 12.1161 14.7867C12.3505 15.0211 12.6685 15.1528 13 15.1528ZM19.25 15.1528C19.4972 15.1528 19.7389 15.0795 19.9445 14.9422C20.15 14.8048 20.3102 14.6096 20.4049 14.3812C20.4995 14.1528 20.5242 13.9014 20.476 13.659C20.4277 13.4165 20.3087 13.1938 20.1339 13.0189C19.9591 12.8441 19.7363 12.7251 19.4939 12.6769C19.2514 12.6286 19.0001 12.6534 18.7716 12.748C18.5432 12.8426 18.348 13.0028 18.2107 13.2084C18.0733 13.4139 18 13.6556 18 13.9028C18 14.2344 18.1317 14.5523 18.3661 14.7867C18.6005 15.0211 18.9185 15.1528 19.25 15.1528ZM13 20.1528C13.2472 20.1528 13.4889 20.0795 13.6945 19.9422C13.9 19.8048 14.0602 19.6096 14.1549 19.3812C14.2495 19.1528 14.2742 18.9014 14.226 18.659C14.1778 18.4165 14.0587 18.1938 13.8839 18.0189C13.7091 17.8441 13.4863 17.7251 13.2439 17.6768C13.0014 17.6286 12.7501 17.6534 12.5216 17.748C12.2932 17.8426 12.098 18.0028 11.9607 18.2084C11.8233 18.4139 11.75 18.6556 11.75 18.9028C11.75 19.2344 11.8817 19.5523 12.1161 19.7867C12.3505 20.0211 12.6685 20.1528 13 20.1528ZM19.25 20.1528C19.4972 20.1528 19.7389 20.0795 19.9445 19.9422C20.15 19.8048 20.3102 19.6096 20.4049 19.3812C20.4995 19.1528 20.5242 18.9014 20.476 18.659C20.4277 18.4165 20.3087 18.1938 20.1339 18.0189C19.9591 17.8441 19.7363 17.7251 19.4939 17.6768C19.2514 17.6286 19.0001 17.6534 18.7716 17.748C18.5432 17.8426 18.348 18.0028 18.2107 18.2084C18.0733 18.4139 18 18.6556 18 18.9028C18 19.2344 18.1317 19.5523 18.3661 19.7867C18.6005 20.0211 18.9185 20.1528 19.25 20.1528ZM6.75 15.1528C6.99723 15.1528 7.2389 15.0795 7.44446 14.9422C7.65002 14.8048 7.81024 14.6096 7.90485 14.3812C7.99946 14.1528 8.02421 13.9014 7.97598 13.659C7.92775 13.4165 7.8087 13.1938 7.63388 13.0189C7.45907 12.8441 7.23634 12.7251 6.99386 12.6769C6.75139 12.6286 6.50005 12.6534 6.27165 12.748C6.04324 12.8426 5.84801 13.0028 5.71066 13.2084C5.57331 13.4139 5.5 13.6556 5.5 13.9028C5.5 14.2344 5.6317 14.5523 5.86612 14.7867C6.10054 15.0211 6.41848 15.1528 6.75 15.1528ZM21.75 2.65283H20.5V1.40283C20.5 1.07131 20.3683 0.753369 20.1339 0.518948C19.8995 0.284528 19.5815 0.152832 19.25 0.152832C18.9185 0.152832 18.6005 0.284528 18.3661 0.518948C18.1317 0.753369 18 1.07131 18 1.40283V2.65283H8V1.40283C8 1.07131 7.8683 0.753369 7.63388 0.518948C7.39946 0.284528 7.08152 0.152832 6.75 0.152832C6.41848 0.152832 6.10054 0.284528 5.86612 0.518948C5.6317 0.753369 5.5 1.07131 5.5 1.40283V2.65283H4.25C3.25544 2.65283 2.30161 3.04792 1.59835 3.75118C0.895088 4.45444 0.5 5.40827 0.5 6.40283V21.4028C0.5 22.3974 0.895088 23.3512 1.59835 24.0545C2.30161 24.7577 3.25544 25.1528 4.25 25.1528H21.75C22.7446 25.1528 23.6984 24.7577 24.4017 24.0545C25.1049 23.3512 25.5 22.3974 25.5 21.4028V6.40283C25.5 5.40827 25.1049 4.45444 24.4017 3.75118C23.6984 3.04792 22.7446 2.65283 21.75 2.65283ZM23 21.4028C23 21.7344 22.8683 22.0523 22.6339 22.2867C22.3995 22.5211 22.0815 22.6528 21.75 22.6528H4.25C3.91848 22.6528 3.60054 22.5211 3.36612 22.2867C3.1317 22.0523 3 21.7344 3 21.4028V10.1528H23V21.4028ZM23 7.65283H3V6.40283C3 6.07131 3.1317 5.75337 3.36612 5.51895C3.60054 5.28453 3.91848 5.15283 4.25 5.15283H21.75C22.0815 5.15283 22.3995 5.28453 22.6339 5.51895C22.8683 5.75337 23 6.07131 23 6.40283V7.65283ZM6.75 20.1528C6.99723 20.1528 7.2389 20.0795 7.44446 19.9422C7.65002 19.8048 7.81024 19.6096 7.90485 19.3812C7.99946 19.1528 8.02421 18.9014 7.97598 18.659C7.92775 18.4165 7.8087 18.1938 7.63388 18.0189C7.45907 17.8441 7.23634 17.7251 6.99386 17.6768C6.75139 17.6286 6.50005 17.6534 6.27165 17.748C6.04324 17.8426 5.84801 18.0028 5.71066 18.2084C5.57331 18.4139 5.5 18.6556 5.5 18.9028C5.5 19.2344 5.6317 19.5523 5.86612 19.7867C6.10054 20.0211 6.41848 20.1528 6.75 20.1528Z" fill="black"/>
</svg>
