<svg width="26" height="26" viewBox="0 0 26 26" fill="none" xmlns="http://www.w3.org/2000/svg">
<path d="M1.625 23.375V20.9583C1.625 19.6765 2.13422 18.4471 3.04065 17.5407C3.94708 16.6342 5.17645 16.125 6.45833 16.125H11.2917C12.4517 16.125 13.515 16.5334 14.3488 17.2137M17.3333 1.78208C18.373 2.04828 19.2945 2.65293 19.9526 3.50071C20.6106 4.34849 20.9678 5.39117 20.9678 6.46438C20.9678 7.53758 20.6106 8.58026 19.9526 9.42804C19.2945 10.2758 18.373 10.8805 17.3333 11.1467M17.3333 20.9583H24.5833M20.9583 17.3333V24.5833M4.04167 6.45833C4.04167 7.74021 4.55089 8.96959 5.45732 9.87602C6.36374 10.7824 7.59312 11.2917 8.875 11.2917C10.1569 11.2917 11.3863 10.7824 12.2927 9.87602C13.1991 8.96959 13.7083 7.74021 13.7083 6.45833C13.7083 5.17645 13.1991 3.94708 12.2927 3.04065C11.3863 2.13422 10.1569 1.625 8.875 1.625C7.59312 1.625 6.36374 2.13422 5.45732 3.04065C4.55089 3.94708 4.04167 5.17645 4.04167 6.45833Z" stroke="#3D3C3C" stroke-width="2" stroke-linecap="round" stroke-linejoin="round"/>
</svg>
