<svg width="28" height="28" viewBox="0 0 28 28" fill="none" xmlns="http://www.w3.org/2000/svg">
<path d="M27.2 13.6002C27.2 21.1202 21.12 27.2002 13.6 27.2002C6.08 27.2002 0 21.1202 0 13.6002C0 6.08019 6.08 0.00019455 13.6 0.00019455C21.12 0.00019455 27.2 6.08019 27.2 13.6002ZM1.6 13.6002C1.6 20.2402 6.96 25.6002 13.6 25.6002C20.24 25.6002 25.6 20.2402 25.6 13.6002C25.6 6.9602 20.24 1.60019 13.6 1.60019C6.96 1.60019 1.6 6.9602 1.6 13.6002Z" fill="black"/>
<path d="M14.9601 6.95986L8.32008 13.5999L14.9601 20.2399L13.8401 21.3599L6.08008 13.5999L13.8401 5.83986L14.9601 6.95986Z" fill="black"/>
<path d="M7.19922 14.3999V12.7999H20.7992V14.3999H7.19922Z" fill="black"/>
</svg>
