<svg width="25" height="25" viewBox="0 0 25 25" fill="none" xmlns="http://www.w3.org/2000/svg">
<path d="M12.667 14.6474C12.8648 14.6474 13.0581 14.5888 13.2226 14.4789C13.387 14.369 13.5152 14.2128 13.5909 14.0301C13.6666 13.8474 13.6864 13.6463 13.6478 13.4523C13.6092 13.2583 13.514 13.0801 13.3741 12.9403C13.2342 12.8004 13.0561 12.7052 12.8621 12.6666C12.6681 12.628 12.467 12.6478 12.2843 12.7235C12.1016 12.7992 11.9454 12.9274 11.8355 13.0918C11.7256 13.2563 11.667 13.4496 11.667 13.6474C11.667 13.9126 11.7723 14.167 11.9599 14.3545C12.1474 14.542 12.4018 14.6474 12.667 14.6474ZM17.667 14.6474C17.8648 14.6474 18.0581 14.5888 18.2226 14.4789C18.387 14.369 18.5152 14.2128 18.5909 14.0301C18.6666 13.8474 18.6864 13.6463 18.6478 13.4523C18.6092 13.2583 18.514 13.0801 18.3741 12.9403C18.2342 12.8004 18.0561 12.7052 17.8621 12.6666C17.6681 12.628 17.467 12.6478 17.2843 12.7235C17.1016 12.7992 16.9454 12.9274 16.8355 13.0918C16.7256 13.2563 16.667 13.4496 16.667 13.6474C16.667 13.9126 16.7723 14.167 16.9599 14.3545C17.1474 14.542 17.4018 14.6474 17.667 14.6474ZM12.667 18.6474C12.8648 18.6474 13.0581 18.5888 13.2226 18.4789C13.387 18.369 13.5152 18.2128 13.5909 18.0301C13.6666 17.8474 13.6864 17.6463 13.6478 17.4523C13.6092 17.2583 13.514 17.0801 13.3741 16.9403C13.2342 16.8004 13.0561 16.7052 12.8621 16.6666C12.6681 16.628 12.467 16.6478 12.2843 16.7235C12.1016 16.7992 11.9454 16.9274 11.8355 17.0918C11.7256 17.2563 11.667 17.4496 11.667 17.6474C11.667 17.9126 11.7723 18.167 11.9599 18.3545C12.1474 18.542 12.4018 18.6474 12.667 18.6474ZM17.667 18.6474C17.8648 18.6474 18.0581 18.5888 18.2226 18.4789C18.387 18.369 18.5152 18.2128 18.5909 18.0301C18.6666 17.8474 18.6864 17.6463 18.6478 17.4523C18.6092 17.2583 18.514 17.0801 18.3741 16.9403C18.2342 16.8004 18.0561 16.7052 17.8621 16.6666C17.6681 16.628 17.467 16.6478 17.2843 16.7235C17.1016 16.7992 16.9454 16.9274 16.8355 17.0918C16.7256 17.2563 16.667 17.4496 16.667 17.6474C16.667 17.9126 16.7723 18.167 16.9599 18.3545C17.1474 18.542 17.4018 18.6474 17.667 18.6474ZM7.66699 14.6474C7.86477 14.6474 8.05811 14.5888 8.22256 14.4789C8.38701 14.369 8.51518 14.2128 8.59087 14.0301C8.66656 13.8474 8.68636 13.6463 8.64778 13.4523C8.60919 13.2583 8.51395 13.0801 8.3741 12.9403C8.23425 12.8004 8.05606 12.7052 7.86208 12.6666C7.6681 12.628 7.46703 12.6478 7.28431 12.7235C7.10158 12.7992 6.9454 12.9274 6.83552 13.0918C6.72564 13.2563 6.66699 13.4496 6.66699 13.6474C6.66699 13.9126 6.77235 14.167 6.95989 14.3545C7.14742 14.542 7.40178 14.6474 7.66699 14.6474ZM19.667 4.6474H18.667V3.6474C18.667 3.38218 18.5616 3.12783 18.3741 2.94029C18.1866 2.75276 17.9322 2.6474 17.667 2.6474C17.4018 2.6474 17.1474 2.75276 16.9599 2.94029C16.7723 3.12783 16.667 3.38218 16.667 3.6474V4.6474H8.66699V3.6474C8.66699 3.38218 8.56164 3.12783 8.3741 2.94029C8.18656 2.75276 7.93221 2.6474 7.66699 2.6474C7.40178 2.6474 7.14742 2.75276 6.95989 2.94029C6.77235 3.12783 6.66699 3.38218 6.66699 3.6474V4.6474H5.66699C4.87134 4.6474 4.10828 4.96347 3.54567 5.52608C2.98306 6.08869 2.66699 6.85175 2.66699 7.6474V19.6474C2.66699 20.443 2.98306 21.2061 3.54567 21.7687C4.10828 22.3313 4.87134 22.6474 5.66699 22.6474H19.667C20.4626 22.6474 21.2257 22.3313 21.7883 21.7687C22.3509 21.2061 22.667 20.443 22.667 19.6474V7.6474C22.667 6.85175 22.3509 6.08869 21.7883 5.52608C21.2257 4.96347 20.4626 4.6474 19.667 4.6474ZM20.667 19.6474C20.667 19.9126 20.5616 20.167 20.3741 20.3545C20.1866 20.542 19.9322 20.6474 19.667 20.6474H5.66699C5.40178 20.6474 5.14742 20.542 4.95989 20.3545C4.77235 20.167 4.66699 19.9126 4.66699 19.6474V10.6474H20.667V19.6474ZM20.667 8.6474H4.66699V7.6474C4.66699 7.38218 4.77235 7.12783 4.95989 6.94029C5.14742 6.75276 5.40178 6.6474 5.66699 6.6474H19.667C19.9322 6.6474 20.1866 6.75276 20.3741 6.94029C20.5616 7.12783 20.667 7.38218 20.667 7.6474V8.6474ZM7.66699 18.6474C7.86477 18.6474 8.05811 18.5888 8.22256 18.4789C8.38701 18.369 8.51518 18.2128 8.59087 18.0301C8.66656 17.8474 8.68636 17.6463 8.64778 17.4523C8.60919 17.2583 8.51395 17.0801 8.3741 16.9403C8.23425 16.8004 8.05606 16.7052 7.86208 16.6666C7.6681 16.628 7.46703 16.6478 7.28431 16.7235C7.10158 16.7992 6.9454 16.9274 6.83552 17.0918C6.72564 17.2563 6.66699 17.4496 6.66699 17.6474C6.66699 17.9126 6.77235 18.167 6.95989 18.3545C7.14742 18.542 7.40178 18.6474 7.66699 18.6474Z" fill="#545454"/>
</svg>
