<svg width="15" height="15" viewBox="0 0 15 15" fill="none" xmlns="http://www.w3.org/2000/svg">
<path d="M7.5 0C6.01664 0 4.56659 0.439867 3.33323 1.26398C2.09986 2.08809 1.13856 3.25943 0.570907 4.62987C0.00324965 6.00032 -0.145275 7.50832 0.144114 8.96318C0.433503 10.418 1.14781 11.7544 2.1967 12.8033C3.2456 13.8522 4.58197 14.5665 6.03683 14.8559C7.49168 15.1453 8.99968 14.9968 10.3701 14.4291C11.7406 13.8614 12.9119 12.9001 13.736 11.6668C14.5601 10.4334 15 8.98336 15 7.5C14.9979 5.51152 14.207 3.60509 12.801 2.19902C11.3949 0.79295 9.48848 0.00209987 7.5 0ZM10.7928 6.1774L6.75433 10.2159C6.70075 10.2695 6.63712 10.3121 6.56708 10.3411C6.49705 10.3701 6.42197 10.3851 6.34616 10.3851C6.27034 10.3851 6.19527 10.3701 6.12523 10.3411C6.05519 10.3121 5.99156 10.2695 5.93798 10.2159L4.20721 8.48509C4.09896 8.37684 4.03814 8.23002 4.03814 8.07692C4.03814 7.92383 4.09896 7.777 4.20721 7.66875C4.31547 7.56049 4.46229 7.49968 4.61539 7.49968C4.76848 7.49968 4.91531 7.56049 5.02356 7.66875L6.34616 8.99207L9.97644 5.36106C10.03 5.30745 10.0937 5.26494 10.1637 5.23593C10.2337 5.20692 10.3088 5.19199 10.3846 5.19199C10.4604 5.19199 10.5355 5.20692 10.6055 5.23593C10.6756 5.26494 10.7392 5.30745 10.7928 5.36106C10.8464 5.41466 10.8889 5.47829 10.9179 5.54833C10.9469 5.61836 10.9619 5.69342 10.9619 5.76923C10.9619 5.84503 10.9469 5.9201 10.9179 5.99013C10.8889 6.06017 10.8464 6.1238 10.7928 6.1774Z" fill="#4FBDB7"/>
</svg>
