<svg width="37" height="37" viewBox="0 0 37 37" fill="none" xmlns="http://www.w3.org/2000/svg">
<path d="M31.0487 20.5849L31.056 20.5885C31.168 19.9056 31.2222 19.2082 31.2222 18.5181C31.2222 17.9002 31.1752 17.2787 31.0885 16.6717C31.1752 17.2751 31.2186 17.8857 31.2186 18.4964C31.2186 19.1974 31.1607 19.8983 31.0487 20.5849ZM3.57695 14.3845C3.55889 14.37 3.54443 14.3556 3.52637 14.3375C3.55166 14.3628 3.57695 14.3881 3.60586 14.4134L5.97256 16.4332V16.4296L3.57695 14.3845ZM22.9658 6.57979H22.9694L22.4094 3.55186C22.4022 3.51572 22.3949 3.4832 22.3841 3.45068C22.3877 3.46875 22.3949 3.49043 22.3985 3.5085L22.9658 6.57979ZM24.917 26.3264L26.0516 25.3941L29.4047 26.5829C30.0189 25.7555 30.5356 24.8666 30.944 23.9235L28.2448 21.6146L28.4833 20.1657C28.5736 19.6201 28.6206 19.0601 28.6206 18.5C28.6206 17.9399 28.5736 17.3799 28.4833 16.8343L28.2484 15.3926L30.9476 13.0837C30.5356 12.1442 30.0226 11.2518 29.4083 10.4243L26.0552 11.6131L24.9206 10.6809C24.057 9.97266 23.0923 9.41621 22.0553 9.02598L20.6786 8.50928L20.0318 5.00439C19.0113 4.88877 17.981 4.88877 16.9605 5.00439L16.3138 8.5165L14.9443 9.0332C13.9146 9.42344 12.957 9.97988 12.1007 10.6845L10.9661 11.6203L7.59131 10.4207C6.97705 11.2481 6.46035 12.137 6.05205 13.0801L8.78008 15.4106L8.54522 16.856C8.45488 17.3943 8.41152 17.9472 8.41152 18.5C8.41152 19.0492 8.4585 19.6057 8.54522 20.144L8.78008 21.5894L6.05205 23.9199C6.46397 24.8594 6.97705 25.7519 7.59131 26.5793L10.9661 25.3797L12.1007 26.3155C12.957 27.0201 13.9146 27.5766 14.9443 27.9668L16.3102 28.4907L16.9569 32.0028C17.9759 32.1185 19.0129 32.1185 20.0282 32.0028L20.675 28.4979L22.0517 27.9813C23.0923 27.591 24.0534 27.0346 24.917 26.3264ZM18.5179 24.5089C17.4158 24.5089 16.3788 24.2271 15.4719 23.732C13.4882 22.6553 12.1404 20.556 12.1404 18.1387C12.1404 14.6266 14.9877 11.7793 18.4998 11.7793C20.9171 11.7793 23.0164 13.1271 24.0932 15.1107C24.5882 16.0141 24.87 17.0511 24.87 18.1567C24.87 21.6652 22.0264 24.5089 18.5179 24.5089ZM7.48652 29.3687C7.28779 29.4374 7.08184 29.4519 6.88672 29.4121C7.09268 29.4555 7.30947 29.4482 7.51904 29.376L10.4603 28.3281C10.4566 28.3245 10.4494 28.3209 10.4458 28.3173L7.48652 29.3687ZM33.4154 14.3845L31.0487 16.4079C31.0487 16.4151 31.0523 16.426 31.0523 16.4332L33.4154 14.4134C33.672 14.193 33.8165 13.875 33.8201 13.5462C33.8093 13.8642 33.6647 14.1713 33.4154 14.3845Z" fill="#545454" fill-opacity="0.15"/>
<path d="M33.8127 23.3635C33.8308 23.5333 33.8127 23.7068 33.7513 23.873L33.7188 23.9669C33.0656 25.7872 32.0901 27.475 30.839 28.9497L30.7739 29.0255C30.6223 29.2047 30.4198 29.3335 30.1933 29.3948C29.9668 29.4561 29.7269 29.4471 29.5057 29.3688L26.5681 28.3246C25.4904 29.2124 24.2731 29.9157 22.9656 30.4058L22.3983 33.4771C22.3555 33.7082 22.2434 33.9208 22.0769 34.0867C21.9104 34.2525 21.6974 34.3638 21.4661 34.4057L21.3686 34.4238C20.4242 34.5945 19.4665 34.6804 18.5068 34.6803H18.5177C19.4824 34.6803 20.4472 34.5936 21.3866 34.4238L21.4842 34.4057C21.7154 34.3638 21.9285 34.2525 22.095 34.0867C22.2615 33.9208 22.3736 33.7082 22.4164 33.4771L22.9837 30.4094C24.2917 29.918 25.4985 29.2207 26.5825 28.3318L29.5165 29.376C29.7378 29.4543 29.9776 29.4634 30.2041 29.402C30.4307 29.3407 30.6332 29.2119 30.7848 29.0328L30.8498 28.9569C32.1072 27.4718 33.072 25.7989 33.726 23.9814L33.7585 23.8875C33.8163 23.7176 33.8344 23.537 33.8127 23.3635Z" fill="#545454" fill-opacity="0.15"/>
<path d="M24.8594 18.1387C24.8594 17.0438 24.5812 16.0104 24.0934 15.1107C23.0166 13.1271 20.9173 11.7793 18.5 11.7793C14.9879 11.7793 12.1406 14.6266 12.1406 18.1387C12.1406 20.556 13.4884 22.6553 15.4721 23.732C16.3718 24.2198 17.4016 24.498 18.5 24.498C22.0121 24.498 24.8594 21.6508 24.8594 18.1387ZM14.4531 18.1387C14.4531 17.0583 14.8759 16.043 15.6383 15.277C16.4043 14.5109 17.4196 14.0918 18.5 14.0918C19.5804 14.0918 20.5957 14.5109 21.3617 15.277C21.7381 15.6523 22.0366 16.0984 22.24 16.5895C22.4434 17.0806 22.5477 17.6071 22.5469 18.1387C22.5469 19.219 22.1241 20.2344 21.3617 21.0004C20.9864 21.3768 20.5403 21.6753 20.0492 21.8787C19.5581 22.0821 19.0316 22.1864 18.5 22.1855C17.4196 22.1855 16.4043 21.7628 15.6383 21.0004C15.2619 20.6251 14.9634 20.179 14.76 19.6879C14.5566 19.1967 14.4523 18.6702 14.4531 18.1387Z" fill="#545454"/>
<path d="M21.4669 34.4057C21.6982 34.3638 21.9112 34.2525 22.0777 34.0867C22.2442 33.9208 22.3563 33.7082 22.3991 33.4771L22.9664 30.4058C24.2739 29.9157 25.4912 29.2124 26.5689 28.3246L29.5064 29.3688C29.7277 29.4471 29.9675 29.4561 30.1941 29.3948C30.4206 29.3335 30.6231 29.2047 30.7747 29.0255L30.8398 28.9497C32.0972 27.4646 33.0655 25.788 33.7195 23.9669L33.7521 23.873C33.8135 23.7068 33.8315 23.5334 33.8135 23.3635C33.781 23.0781 33.6437 22.8071 33.416 22.6084L31.0565 20.5885L31.0493 20.5849C31.1613 19.8984 31.2191 19.1974 31.2191 18.4964C31.2191 17.8858 31.1758 17.2715 31.0891 16.6717C31.0782 16.5922 31.0638 16.5127 31.0529 16.4333C31.0529 16.426 31.0493 16.4152 31.0493 16.408L33.416 14.3845C33.6653 14.1713 33.8099 13.8642 33.8207 13.5462C33.8243 13.4017 33.8026 13.2536 33.7521 13.1126L33.7195 13.0187C33.068 11.1977 32.0924 9.50959 30.8398 8.03599L30.7747 7.96011C30.6228 7.78144 30.4202 7.653 30.1938 7.59173C29.9674 7.53045 29.7278 7.53921 29.5064 7.61685L26.5689 8.66108C25.4849 7.77222 24.278 7.07124 22.97 6.57983H22.9664L22.3991 3.50854C22.3955 3.49048 22.3919 3.4688 22.3847 3.45073C22.3325 3.23227 22.218 3.03367 22.0551 2.87908C21.8921 2.72449 21.6878 2.62056 21.4669 2.57993L21.3693 2.56187C19.4868 2.22222 17.5067 2.22222 15.6242 2.56187L15.5267 2.57993C15.2954 2.62183 15.0824 2.73311 14.9159 2.89898C14.7493 3.06484 14.6372 3.27745 14.5944 3.50854L14.0235 6.59429C12.726 7.08582 11.5176 7.78642 10.4464 8.66831L7.48712 7.61685C7.26586 7.53859 7.02603 7.52952 6.79949 7.59083C6.57295 7.65214 6.37044 7.78094 6.21885 7.96011L6.15382 8.03599C4.90269 9.51064 3.92721 11.1985 3.27403 13.0187L3.24151 13.1126C3.16621 13.3226 3.15309 13.5499 3.20373 13.7672C3.25436 13.9844 3.36659 14.1825 3.52696 14.3375C3.54503 14.352 3.55948 14.3701 3.57755 14.3845L5.97315 16.4296V16.4333C5.86114 17.1125 5.80694 17.8027 5.80694 18.4928C5.80694 19.1866 5.86114 19.8803 5.97315 20.556L3.57755 22.6011C3.39903 22.7539 3.27127 22.9575 3.21125 23.1847C3.15122 23.4119 3.16178 23.652 3.24151 23.873L3.27403 23.9669C3.92803 25.788 4.89639 27.4682 6.15382 28.9497L6.21885 29.0255C6.39591 29.2315 6.63077 29.3652 6.88731 29.4122C7.08243 29.4483 7.28839 29.4375 7.48712 29.3688L10.4464 28.3173C10.45 28.321 10.4572 28.3246 10.4608 28.3282C11.534 29.2062 12.73 29.9036 14.0235 30.3914L14.5944 33.4771C14.6372 33.7082 14.7493 33.9208 14.9159 34.0867C15.0824 34.2525 15.2954 34.3638 15.5267 34.4057L15.6242 34.4238C16.5673 34.5936 17.532 34.6803 18.4968 34.6803H18.5076C19.4688 34.6803 20.4335 34.5936 21.3693 34.4238L21.4669 34.4057ZM20.0288 32.0029C19.0083 32.1185 17.978 32.1185 16.9575 32.0029L16.3107 28.4908L14.9449 27.9668C13.9151 27.5766 12.9576 27.0202 12.1013 26.3156L10.9667 25.3797L7.5919 26.5793C6.97764 25.7519 6.46456 24.8594 6.05264 23.92L8.78067 21.5894L8.54581 20.1441C8.45909 19.6057 8.41212 19.0493 8.41212 18.5C8.41212 17.9472 8.45548 17.3944 8.54581 16.856L8.78067 15.4107L6.05264 13.0801C6.46094 12.1371 6.97764 11.2482 7.5919 10.4208L10.9667 11.6204L12.1013 10.6845C12.9576 9.97993 13.9151 9.42349 14.9449 9.03325L16.3144 8.51655L16.9611 5.00444C17.9765 4.88882 19.0135 4.88882 20.0324 5.00444L20.6792 8.50933L22.0559 9.02603C23.0929 9.41626 24.0576 9.97271 24.9212 10.6809L26.0558 11.6131L29.4089 10.4244C30.0231 11.2518 30.5362 12.1443 30.9481 13.0837L28.249 15.3926L28.4839 16.8343C28.5742 17.3799 28.6212 17.94 28.6212 18.5C28.6212 19.0601 28.5742 19.6202 28.4839 20.1658L28.2454 21.6147L30.9445 23.9236C30.5354 24.8663 30.0189 25.7586 29.4053 26.583L26.0522 25.3942L24.9176 26.3264C24.054 27.0346 23.0929 27.5911 22.0522 27.9813L20.6756 28.498L20.0288 32.0029Z" fill="#545454"/>
</svg>
