<svg width="23" height="25" viewBox="0 0 23 25" fill="none" xmlns="http://www.w3.org/2000/svg">
<path d="M21.9864 2.10599C21.6861 1.98479 21.3557 1.9531 21.0369 2.01494C20.7182 2.07679 20.4254 2.22938 20.1956 2.45342C19.1954 3.42504 17.8408 3.97064 16.4286 3.97064C15.0163 3.97064 13.6617 3.42504 12.6615 2.45342C11.0447 0.88228 8.85465 0 6.57143 0C4.28821 0 2.09815 0.88228 0.481358 2.45342C0.328576 2.6019 0.2074 2.77833 0.124794 2.97259C0.0421878 3.16684 -0.000222017 3.37509 8.74028e-07 3.58536V24.399C8.74028e-07 24.8236 0.173087 25.2308 0.481183 25.5311C0.789278 25.8313 1.20715 26 1.64286 26C2.07857 26 2.49644 25.8313 2.80453 25.5311C3.11263 25.2308 3.28571 24.8236 3.28571 24.399V17.1094C4.31121 16.3288 5.59406 15.9403 6.89293 16.0169C8.1918 16.0936 9.41717 16.6301 10.3385 17.5257C11.9553 19.0968 14.1454 19.9791 16.4286 19.9791C18.7118 19.9791 20.9019 19.0968 22.5186 17.5257C22.8268 17.2255 22.9999 16.8183 23 16.3937V3.58536C23.0001 3.26873 22.9038 2.95918 22.7234 2.69586C22.543 2.43254 22.2865 2.22726 21.9864 2.10599Z" fill="#3D3C3C"/>
</svg>
