<svg width="18" height="16" viewBox="0 0 18 16" fill="none" xmlns="http://www.w3.org/2000/svg">
<path d="M8.99946 15.5C8.74856 15.4997 8.50356 15.4239 8.29633 15.2824C5.22641 13.1984 3.89711 11.7695 3.16391 10.8762C1.60141 8.97188 0.853363 7.0168 0.874457 4.89961C0.899067 2.47344 2.84555 0.5 5.21352 0.5C6.9354 0.5 8.12797 1.46992 8.82251 2.27773C8.84451 2.30307 8.87169 2.32338 8.90222 2.3373C8.93275 2.35122 8.96591 2.35842 8.99946 2.35842C9.03301 2.35842 9.06617 2.35122 9.0967 2.3373C9.12723 2.32338 9.15441 2.30307 9.17641 2.27773C9.87094 1.46914 11.0635 0.5 12.7854 0.5C15.1534 0.5 17.0998 2.47344 17.1245 4.9C17.1456 7.01758 16.3967 8.97266 14.835 10.8766C14.1018 11.7699 12.7725 13.1988 9.70258 15.2828C9.49531 15.4241 9.25032 15.4998 8.99946 15.5V15.5Z" fill="#F96976"/>
</svg>
