<svg width="13" height="14" viewBox="0 0 13 14" fill="none" xmlns="http://www.w3.org/2000/svg">
<path d="M9.57895 2.04832C8.97653 2.04783 8.38531 2.2155 7.86842 2.53342C7.49365 1.64955 6.83553 0.924262 6.00363 0.478333C5.17174 0.0324039 4.21628 -0.107254 3.29636 0.0826144C2.37645 0.272483 1.54759 0.780419 0.947807 1.52184C0.348028 2.26326 0.0135248 3.19343 0 4.15744V6.9696C0.000982417 7.96572 0.345011 8.92935 0.971158 9.68982C1.59731 10.4503 2.46517 10.9585 3.42105 11.1246V13.297C3.42105 13.4834 3.49314 13.6622 3.62145 13.7941C3.74977 13.9259 3.9238 14 4.10526 14C4.28673 14 4.46076 13.9259 4.58907 13.7941C4.71739 13.6622 4.78947 13.4834 4.78947 13.297V11.1246C5.4865 11.0003 6.14116 10.6954 6.69158 10.2387C6.93585 10.6416 7.257 10.9894 7.63564 11.2613C8.01429 11.5331 8.4426 11.7234 8.89474 11.8206V13.297C8.89474 13.4834 8.96682 13.6622 9.09514 13.7941C9.22345 13.9259 9.39748 14 9.57895 14C9.76041 14 9.93444 13.9259 10.0628 13.7941C10.1911 13.6622 10.2632 13.4834 10.2632 13.297V11.8206C11.0359 11.6585 11.7304 11.2271 12.2291 10.5993C12.7278 9.97157 13.0002 9.18604 13 8.37568V5.56352C13 4.63123 12.6396 3.73713 11.998 3.0779C11.3564 2.41867 10.4863 2.04832 9.57895 2.04832ZM6.1579 5.56352V8.37568C6.16444 8.50993 6.17815 8.64371 6.19895 8.77641C5.83302 9.22422 5.34035 9.54369 4.78947 9.69037V7.67264C4.78947 7.48618 4.71739 7.30736 4.58907 7.17552C4.46076 7.04367 4.28673 6.9696 4.10526 6.9696C3.9238 6.9696 3.74977 7.04367 3.62145 7.17552C3.49314 7.30736 3.42105 7.48618 3.42105 7.67264V9.68333C2.83504 9.52787 2.31572 9.17719 1.94431 8.68617C1.57291 8.19515 1.37039 7.59148 1.36842 6.9696V4.15744C1.36664 3.60033 1.52594 3.05522 1.82611 2.59128C2.12629 2.12734 2.55382 1.76546 3.05446 1.55156C3.5551 1.33766 4.10629 1.28137 4.63811 1.38984C5.16992 1.49831 5.65841 1.76665 6.04158 2.16081C6.41198 2.54652 6.66414 3.03539 6.76684 3.56689C6.37132 4.15349 6.15893 4.84989 6.1579 5.56352ZM11.6316 8.37568C11.6304 8.81082 11.4982 9.23494 11.2533 9.58988C11.0083 9.94482 10.6624 10.2132 10.2632 10.3583V7.67264C10.2632 7.48618 10.1911 7.30736 10.0628 7.17552C9.93444 7.04367 9.76041 6.9696 9.57895 6.9696C9.39748 6.9696 9.22345 7.04367 9.09514 7.17552C8.96682 7.30736 8.89474 7.48618 8.89474 7.67264V10.3583C8.49547 10.2132 8.14963 9.94482 7.90464 9.58988C7.65965 9.23494 7.52751 8.81082 7.52632 8.37568V5.56352C7.52632 5.00415 7.74257 4.46769 8.12752 4.07215C8.51246 3.67661 9.03456 3.4544 9.57895 3.4544C10.1233 3.4544 10.6454 3.67661 11.0304 4.07215C11.4153 4.46769 11.6316 5.00415 11.6316 5.56352V8.37568Z" fill="#2D8F8A"/>
</svg>
