<svg width="14" height="14" viewBox="0 0 14 14" fill="none" xmlns="http://www.w3.org/2000/svg">
<path d="M13.3002 0.302021C13.2077 0.209317 13.0978 0.135769 12.9768 0.085588C12.8559 0.0354065 12.7262 0.00957632 12.5952 0.00957632C12.4643 0.00957632 12.3346 0.0354065 12.2136 0.085588C12.0926 0.135769 11.9827 0.209317 11.8902 0.302021L7.00022 5.18202L2.11022 0.29202C2.01764 0.199438 1.90773 0.125998 1.78677 0.0758934C1.6658 0.0257884 1.53615 9.75509e-10 1.40522 0C1.27429 -9.75509e-10 1.14464 0.0257884 1.02368 0.0758934C0.902716 0.125998 0.792805 0.199438 0.700223 0.29202C0.607642 0.384602 0.534202 0.494513 0.484097 0.615477C0.433992 0.736441 0.408203 0.86609 0.408203 0.997021C0.408203 1.12795 0.433992 1.2576 0.484097 1.37856C0.534202 1.49953 0.607642 1.60944 0.700223 1.70202L5.59022 6.59202L0.700223 11.482C0.607642 11.5746 0.534202 11.6845 0.484097 11.8055C0.433992 11.9264 0.408203 12.0561 0.408203 12.187C0.408203 12.318 0.433992 12.4476 0.484097 12.5686C0.534202 12.6895 0.607642 12.7994 0.700223 12.892C0.792805 12.9846 0.902716 13.058 1.02368 13.1081C1.14464 13.1583 1.27429 13.184 1.40522 13.184C1.53615 13.184 1.6658 13.1583 1.78677 13.1081C1.90773 13.058 2.01764 12.9846 2.11022 12.892L7.00022 8.00202L11.8902 12.892C11.9828 12.9846 12.0927 13.058 12.2137 13.1081C12.3346 13.1583 12.4643 13.184 12.5952 13.184C12.7262 13.184 12.8558 13.1583 12.9768 13.1081C13.0977 13.058 13.2076 12.9846 13.3002 12.892C13.3928 12.7994 13.4662 12.6895 13.5163 12.5686C13.5665 12.4476 13.5922 12.318 13.5922 12.187C13.5922 12.0561 13.5665 11.9264 13.5163 11.8055C13.4662 11.6845 13.3928 11.5746 13.3002 11.482L8.41022 6.59202L13.3002 1.70202C13.6802 1.32202 13.6802 0.682021 13.3002 0.302021Z" fill="#CECECE"/>
</svg>
