<svg width="20" height="15" viewBox="0 0 20 15" fill="none" xmlns="http://www.w3.org/2000/svg">
<path d="M18.9984 -0.000104904L0.998449 -0.000104904C0.816208 0.000466347 0.637573 0.0507298 0.481773 0.145273C0.325974 0.239817 0.198908 0.37506 0.114254 0.536448C0.0296001 0.697835 -0.00943565 0.879255 0.00134659 1.06118C0.0121288 1.2431 0.0723228 1.41864 0.175449 1.5689L9.17545 14.5689C9.54845 15.1079 10.4464 15.1079 10.8204 14.5689L19.8204 1.5689C19.9246 1.41895 19.9857 1.24333 19.9971 1.0611C20.0085 0.878874 19.9697 0.697017 19.8849 0.535288C19.8002 0.373559 19.6728 0.238141 19.5165 0.143751C19.3602 0.0493612 19.181 -0.000392914 18.9984 -0.000104904Z" fill="#545454"/>
</svg>
