<svg width="30" height="28" viewBox="0 0 30 28" fill="none" xmlns="http://www.w3.org/2000/svg">
<path d="M24.3285 1.91448C25.308 2.68248 25.983 3.92298 26.259 5.22198C26.2924 5.23255 26.325 5.24559 26.3565 5.26098L29.424 6.67998C29.5955 6.75871 29.7408 6.88486 29.8429 7.04355C29.9449 7.20223 29.9995 7.3868 30 7.57548V26.126C29.9989 26.2801 29.9621 26.4318 29.8925 26.5693C29.8229 26.7068 29.7224 26.8263 29.5989 26.9184C29.4754 27.0106 29.3322 27.0728 29.1806 27.1003C29.029 27.1278 28.873 27.1199 28.725 27.077L20.2215 24.677L10.1115 27.464C9.92909 27.5141 9.73629 27.512 9.555 27.458L0.711 24.8255C0.506581 24.7654 0.326985 24.6411 0.198893 24.4708C0.0708015 24.3006 0.00104949 24.0935 0 23.8805L0 4.99698C0 4.33698 0.642 3.86298 1.2825 4.04898L9.8355 6.54048L14.1825 5.20998C14.2423 5.19231 14.3035 5.17977 14.3655 5.17248C14.5335 4.18848 15.003 3.24348 15.7905 2.32248C16.725 1.22748 18.3645 0.585475 19.962 0.508975C21.6195 0.429475 22.8855 0.783475 24.327 1.91298M1.9995 6.32148V23.144L9.3045 25.3175V8.44698L1.9995 6.32148ZM14.313 7.24248L11.304 8.16198V25.0805L18.9015 22.9895V18.047C18.9015 17.501 19.35 17.0585 19.902 17.0585C20.454 17.0585 20.901 17.501 20.901 18.0485V22.814L28.0005 24.8165V8.20398L26.3205 7.42398C26.292 7.58898 26.256 7.75098 26.211 7.90848C25.8848 9.05861 25.3376 10.1342 24.6 11.075L20.8845 15.7145C20.7867 15.8365 20.6617 15.9339 20.5196 15.9992C20.3775 16.0644 20.2221 16.0955 20.0658 16.0901C19.9096 16.0847 19.7567 16.043 19.6194 15.9681C19.4821 15.8933 19.3642 15.7874 19.275 15.659L15.8025 10.6295C15.2295 9.82848 14.8275 9.11448 14.601 8.47548C14.4588 8.07665 14.3622 7.66302 14.313 7.24248ZM20.058 2.48598C18.969 2.53848 17.85 2.97648 17.3175 3.59898C16.677 4.34898 16.362 5.05098 16.299 5.76198C16.224 6.61848 16.275 7.22298 16.488 7.82148C16.6455 8.26398 16.959 8.82498 17.4435 9.50148L20.16 13.4345L23.025 9.85698C23.603 9.11831 24.0315 8.27407 24.2865 7.37148C24.6465 6.11148 24.1035 4.26048 23.0865 3.46548C22.044 2.64798 21.2565 2.42748 20.0595 2.48598M20.2665 3.53148C21.9225 3.53148 23.2665 4.85898 23.2665 6.49698C23.2643 6.88871 23.185 7.27617 23.0331 7.63724C22.8811 7.9983 22.6595 8.32589 22.3809 8.60128C22.1023 8.87668 21.7722 9.09448 21.4094 9.24224C21.0466 9.39001 20.6582 9.46485 20.2665 9.46248C18.6105 9.46248 17.2665 8.13498 17.2665 6.49698C17.2665 4.85898 18.6105 3.53148 20.2665 3.53148ZM20.2665 5.50848C20.1359 5.50769 20.0064 5.53263 19.8855 5.58188C19.7645 5.63113 19.6544 5.70372 19.5615 5.79551C19.4686 5.8873 19.3947 5.99649 19.344 6.11685C19.2933 6.23721 19.2668 6.36638 19.266 6.49698C19.266 7.04298 19.7145 7.48548 20.2665 7.48548C20.3971 7.48607 20.5265 7.46093 20.6474 7.4115C20.7683 7.36207 20.8783 7.28931 20.971 7.19738C21.0638 7.10545 21.1376 6.99615 21.1881 6.87571C21.2386 6.75528 21.2649 6.62608 21.2655 6.49548C21.2635 6.23224 21.1572 5.98053 20.97 5.79551C20.7827 5.6105 20.5297 5.50728 20.2665 5.50848Z" fill="#545454"/>
</svg>
