<svg width="34" height="35" viewBox="0 0 34 35" fill="none" xmlns="http://www.w3.org/2000/svg">
<path fill-rule="evenodd" clip-rule="evenodd" d="M12.75 6.1665C12.75 5.03933 13.1978 3.95833 13.9948 3.1613C14.7918 2.36427 15.8728 1.9165 17 1.9165C18.1272 1.9165 19.2082 2.36427 20.0052 3.1613C20.8022 3.95833 21.25 5.03933 21.25 6.1665V17.4998C21.25 18.627 20.8022 19.708 20.0052 20.505C19.2082 21.3021 18.1272 21.7498 17 21.7498C15.8728 21.7498 14.7918 21.3021 13.9948 20.505C13.1978 19.708 12.75 18.627 12.75 17.4998V6.1665ZM18.4167 6.1665V17.4998C18.4167 17.8756 18.2674 18.2359 18.0017 18.5016C17.7361 18.7672 17.3757 18.9165 17 18.9165C16.6243 18.9165 16.2639 18.7672 15.9983 18.5016C15.7326 18.2359 15.5833 17.8756 15.5833 17.4998V6.1665C15.5833 5.79078 15.7326 5.43045 15.9983 5.16477C16.2639 4.89909 16.6243 4.74984 17 4.74984C17.3757 4.74984 17.7361 4.89909 18.0017 5.16477C18.2674 5.43045 18.4167 5.79078 18.4167 6.1665Z" fill="#545454"/>
<path d="M25.5 17.5C25.4997 19.5088 24.7883 21.4526 23.4917 22.987C22.1952 24.5213 20.3973 25.5471 18.4167 25.8824V30.25H24.0833V33.0833H9.91667V30.25H15.5833V25.8824C13.6027 25.5471 11.8048 24.5213 10.5083 22.987C9.21171 21.4526 8.50026 19.5088 8.5 17.5V13.25H11.3333V17.5C11.3333 19.0029 11.9304 20.4442 12.9931 21.5069C14.0558 22.5696 15.4971 23.1667 17 23.1667C18.5029 23.1667 19.9442 22.5696 21.0069 21.5069C22.0696 20.4442 22.6667 19.0029 22.6667 17.5V13.25H25.5V17.5Z" fill="#545454"/>
</svg>
