<svg width="41" height="41" viewBox="0 0 41 41" fill="none" xmlns="http://www.w3.org/2000/svg">
<path d="M23.1235 27.4579L22.0633 26.3976L21.0026 27.4574L18.0452 30.4123L18.0439 30.4136C16.4972 31.9628 15.4544 33.0005 14.6055 33.6301C13.7785 34.2434 13.4456 34.2325 13.2616 34.1924C13.0775 34.1515 12.7708 34.0209 12.2771 33.1178C11.7698 32.1899 11.2574 30.8111 10.5002 28.7573C10.5002 28.7572 10.5001 28.757 10.5001 28.7568L5.56637 15.3594L5.56625 15.3591C4.0723 11.3051 3.0136 8.42393 2.56072 6.29498C2.10178 4.13752 2.39203 3.31712 2.85207 2.85709C3.3126 2.39655 4.13428 2.10577 6.29219 2.56374C8.42162 3.01566 11.3041 4.07373 15.3587 5.56873L15.3595 5.56902L28.7567 10.5002C28.757 10.5003 28.7572 10.5003 28.7574 10.5004C30.8111 11.2575 32.1898 11.7699 33.1177 12.2772C34.0208 12.7709 34.1514 13.0776 34.1923 13.2617C34.2324 13.4455 34.2435 13.7778 33.6301 14.6045C33.0003 15.4534 31.9626 16.4962 30.4131 18.0445L30.4122 18.0453L27.4573 21.0027L26.3975 22.0634L27.4577 23.1236L37.1387 32.8045C37.6547 33.3206 37.9878 33.6548 38.2258 33.9279C38.4548 34.1906 38.5209 34.3145 38.5481 34.3806L38.5483 34.3809C38.7039 34.7582 38.7049 35.1827 38.5483 35.5647C38.5208 35.6306 38.4539 35.7543 38.2263 36.0152C37.988 36.2882 37.6547 36.6228 37.1387 37.1388C36.6226 37.6549 36.2883 37.9879 36.0153 38.2259C35.7526 38.455 35.6287 38.521 35.5626 38.5482L35.5606 38.5491C35.1826 38.7055 34.758 38.7055 34.38 38.5491C34.3154 38.5223 34.1926 38.4567 33.9295 38.2269C33.656 37.988 33.3217 37.6548 32.8039 37.1382C32.8036 37.138 32.8034 37.1377 32.8031 37.1375L23.1235 27.4579Z" fill="#22970F" stroke="white" stroke-width="3"/>
</svg>
