<svg width="46" height="46" viewBox="0 0 46 46" fill="none" xmlns="http://www.w3.org/2000/svg">
<path fill-rule="evenodd" clip-rule="evenodd" d="M23 46C35.7025 46 46 35.7025 46 23C46 10.2975 35.7025 0 23 0C10.2975 0 0 10.2975 0 23C0 35.7025 10.2975 46 23 46ZM30.9262 18.8482C30.9262 23.2588 26.453 33.8621 22.8118 33.8621C19.1707 33.8621 14.6984 23.2588 14.6984 18.8482C14.6984 14.4376 18.4012 10.8621 22.8118 10.8621C27.2224 10.8621 30.9262 14.4376 30.9262 18.8482ZM26.8333 19.1667C26.8333 21.2838 25.1171 23 23 23C20.8829 23 19.1667 21.2838 19.1667 19.1667C19.1667 17.0496 20.8829 15.3333 23 15.3333C25.1171 15.3333 26.8333 17.0496 26.8333 19.1667Z" fill="#4FBDB7"/>
</svg>
