<svg width="20" height="20" viewBox="0 0 20 20" fill="none" xmlns="http://www.w3.org/2000/svg">
<path d="M10 10C8.625 10 7.44792 9.51042 6.46875 8.53125C5.48958 7.55208 5 6.375 5 5C5 3.625 5.48958 2.44792 6.46875 1.46875C7.44792 0.489584 8.625 0 10 0C11.375 0 12.5521 0.489584 13.5312 1.46875C14.5104 2.44792 15 3.625 15 5C15 6.375 14.5104 7.55208 13.5312 8.53125C12.5521 9.51042 11.375 10 10 10ZM0 20V16.5C0 15.7917 0.1825 15.1408 0.5475 14.5475C0.9125 13.9542 1.39667 13.5008 2 13.1875C3.29167 12.5417 4.60417 12.0575 5.9375 11.735C7.27083 11.4125 8.625 11.2508 10 11.25C11.375 11.2492 12.7292 11.4108 14.0625 11.735C15.3958 12.0592 16.7083 12.5433 18 13.1875C18.6042 13.5 19.0887 13.9533 19.4537 14.5475C19.8187 15.1417 20.0008 15.7925 20 16.5V20H0ZM2.5 17.5H17.5V16.5C17.5 16.2708 17.4429 16.0625 17.3287 15.875C17.2146 15.6875 17.0633 15.5417 16.875 15.4375C15.75 14.875 14.6146 14.4533 13.4687 14.1725C12.3229 13.8917 11.1667 13.7508 10 13.75C8.83333 13.7492 7.67708 13.89 6.53125 14.1725C5.38542 14.455 4.25 14.8767 3.125 15.4375C2.9375 15.5417 2.78625 15.6875 2.67125 15.875C2.55625 16.0625 2.49917 16.2708 2.5 16.5V17.5ZM10 7.5C10.6875 7.5 11.2762 7.25542 11.7662 6.76625C12.2562 6.27708 12.5008 5.68833 12.5 5C12.4992 4.31167 12.2546 3.72333 11.7662 3.235C11.2779 2.74667 10.6892 2.50167 10 2.5C9.31083 2.49833 8.7225 2.74333 8.235 3.235C7.7475 3.72667 7.5025 4.315 7.5 5C7.4975 5.685 7.7425 6.27375 8.235 6.76625C8.7275 7.25875 9.31583 7.50333 10 7.5Z" fill="#545454"/>
</svg>
