<svg width="28" height="28" viewBox="0 0 28 28" fill="none" xmlns="http://www.w3.org/2000/svg">
<path d="M13.9219 0.625C14.3819 0.625 14.823 0.807728 15.1483 1.13299C15.4735 1.45824 15.6562 1.89939 15.6562 2.35938V12.1875H25.4844C25.9444 12.1875 26.3855 12.3702 26.7108 12.6955C27.036 13.0207 27.2188 13.4619 27.2188 13.9219C27.2188 14.3819 27.036 14.823 26.7108 15.1483C26.3855 15.4735 25.9444 15.6562 25.4844 15.6562H15.6562V25.4844C15.6562 25.9444 15.4735 26.3855 15.1483 26.7108C14.823 27.036 14.3819 27.2188 13.9219 27.2188C13.4619 27.2188 13.0207 27.036 12.6955 26.7108C12.3702 26.3855 12.1875 25.9444 12.1875 25.4844V15.6562H2.35938C1.89939 15.6562 1.45824 15.4735 1.13299 15.1483C0.807728 14.823 0.625 14.3819 0.625 13.9219C0.625 13.4619 0.807728 13.0207 1.13299 12.6955C1.45824 12.3702 1.89939 12.1875 2.35938 12.1875H12.1875V2.35938C12.1875 1.89939 12.3702 1.45824 12.6955 1.13299C13.0207 0.807728 13.4619 0.625 13.9219 0.625Z" fill="#4FBDB7"/>
</svg>
