<svg width="35" height="35" viewBox="0 0 35 35" fill="none" xmlns="http://www.w3.org/2000/svg">
<path d="M0 4.92857C0 3.62143 0.519258 2.36783 1.44354 1.44354C2.36783 0.519258 3.62143 0 4.92857 0H25.5768C26.8839 0.000279141 28.1372 0.519721 29.0613 1.44407L33.0559 5.43868C33.9803 6.36275 34.4997 7.61615 34.5 8.92318V29.5714C34.5 30.8786 33.9807 32.1322 33.0565 33.0565C32.1322 33.9807 30.8786 34.5 29.5714 34.5H4.92857C3.62143 34.5 2.36783 33.9807 1.44354 33.0565C0.519258 32.1322 0 30.8786 0 29.5714V4.92857ZM4.92857 2.46429C4.275 2.46429 3.6482 2.72392 3.18606 3.18606C2.72392 3.6482 2.46429 4.275 2.46429 4.92857V29.5714C2.46429 30.225 2.72392 30.8518 3.18606 31.3139C3.6482 31.7761 4.275 32.0357 4.92857 32.0357V20.9464C4.92857 19.9661 5.31801 19.0259 6.01123 18.3327C6.70444 17.6394 7.64465 17.25 8.625 17.25H25.875C26.8554 17.25 27.7956 17.6394 28.4888 18.3327C29.182 19.0259 29.5714 19.9661 29.5714 20.9464V32.0357C30.225 32.0357 30.8518 31.7761 31.3139 31.3139C31.7761 30.8518 32.0357 30.225 32.0357 29.5714V8.92318C32.0356 8.26966 31.7759 7.64296 31.3137 7.18093L27.3191 3.18632C26.857 2.72415 26.2303 2.46443 25.5768 2.46429H24.6429V8.625C24.6429 9.60535 24.2534 10.5456 23.5602 11.2388C22.867 11.932 21.9268 12.3214 20.9464 12.3214H11.0893C10.1089 12.3214 9.16873 11.932 8.47552 11.2388C7.7823 10.5456 7.39286 9.60535 7.39286 8.625V2.46429H4.92857ZM9.85714 2.46429V8.625C9.85714 8.95178 9.98696 9.26518 10.218 9.49626C10.4491 9.72733 10.7625 9.85714 11.0893 9.85714H20.9464C21.2732 9.85714 21.5866 9.72733 21.8177 9.49626C22.0488 9.26518 22.1786 8.95178 22.1786 8.625V2.46429H9.85714ZM27.1071 32.0357V20.9464C27.1071 20.6196 26.9773 20.3062 26.7463 20.0752C26.5152 19.8441 26.2018 19.7143 25.875 19.7143H8.625C8.29822 19.7143 7.98481 19.8441 7.75374 20.0752C7.52267 20.3062 7.39286 20.6196 7.39286 20.9464V32.0357H27.1071Z" fill="#04ACB5"/>
</svg>
