<svg width="16" height="11" viewBox="0 0 16 11" fill="none" xmlns="http://www.w3.org/2000/svg">
<path d="M1.35059 0.5C1.53429 0.500024 1.71159 0.567467 1.84886 0.689536C1.98614 0.811606 2.07384 0.979812 2.09534 1.16225L2.10059 1.25V5.75H6.60059V2C6.60061 1.8163 6.66805 1.639 6.79012 1.50172C6.91219 1.36444 7.0804 1.27674 7.26284 1.25525L7.35059 1.25H13.3506C13.9245 1.24997 14.4767 1.46924 14.8943 1.86296C15.3118 2.25668 15.5632 2.79508 15.5968 3.368L15.6006 3.5V9.5C15.6004 9.69116 15.5272 9.87502 15.3959 10.014C15.2647 10.153 15.0854 10.2367 14.8945 10.2479C14.7037 10.2591 14.5158 10.197 14.3692 10.0743C14.2226 9.95161 14.1284 9.77757 14.1058 9.58775L14.1006 9.5V7.25H2.10059V9.5C2.10037 9.69116 2.02718 9.87502 1.89595 10.014C1.76472 10.153 1.58537 10.2367 1.39454 10.2479C1.20371 10.2591 1.0158 10.197 0.869211 10.0743C0.722622 9.95161 0.628414 9.77757 0.605836 9.58775L0.600586 9.5V1.25C0.600586 1.05109 0.679604 0.860322 0.820256 0.71967C0.960908 0.579018 1.15167 0.5 1.35059 0.5Z" fill="#D26D6D"/>
<path d="M4.35059 2C4.64244 2.00009 4.92794 2.08533 5.17207 2.24526C5.41621 2.40519 5.60839 2.63287 5.72506 2.9004C5.84172 3.16792 5.87781 3.46367 5.82889 3.7514C5.77998 4.03913 5.64818 4.30634 5.44967 4.52028C5.25115 4.73423 4.99453 4.88561 4.71125 4.95588C4.42798 5.02614 4.13036 5.01225 3.85487 4.91589C3.57938 4.81953 3.33798 4.64489 3.16026 4.41338C2.98254 4.18186 2.87623 3.90354 2.85434 3.6125L2.85059 3.5L2.85434 3.3875C2.88272 3.01013 3.05269 2.65744 3.33017 2.40012C3.60766 2.1428 3.97215 1.99988 4.35059 2Z" fill="#D26D6D"/>
</svg>
