<svg width="32" height="32" viewBox="0 0 32 32" fill="none" xmlns="http://www.w3.org/2000/svg">
<path d="M18 5.43282C18 4.03482 16.258 3.39682 15.355 4.46282L11.269 9.29282C11.0812 9.5144 10.8475 9.69243 10.5839 9.81452C10.3204 9.93661 10.0334 9.99985 9.743 9.99982H6C4.93913 9.99982 3.92172 10.4212 3.17157 11.1714C2.42143 11.9215 2 12.939 2 13.9998V17.9998C2 19.0607 2.42143 20.0781 3.17157 20.8282C3.92172 21.5784 4.93913 21.9998 6 21.9998H9.743C10.0335 21.9999 10.3205 22.0633 10.5841 22.1856C10.8476 22.3078 11.0813 22.4861 11.269 22.7078L15.355 27.5368C16.257 28.6028 18 27.9648 18 26.5668V5.43282ZM21.433 9.17582C21.5413 9.10138 21.6631 9.049 21.7916 9.02168C21.9201 8.99436 22.0528 8.99263 22.182 9.01659C22.3111 9.04055 22.4343 9.08973 22.5445 9.16132C22.6547 9.23291 22.7496 9.32551 22.824 9.43382C24.289 11.5638 25.062 13.7578 25.062 15.9998C25.062 18.2418 24.289 20.4358 22.824 22.5668C22.7502 22.6765 22.6554 22.7704 22.5451 22.8432C22.4348 22.916 22.3112 22.9663 22.1813 22.991C22.0515 23.0157 21.918 23.0144 21.7887 22.9873C21.6593 22.9601 21.5367 22.9076 21.4278 22.8327C21.3188 22.7578 21.2259 22.6621 21.1542 22.551C21.0825 22.44 21.0335 22.3158 21.0101 22.1858C20.9867 22.0557 20.9893 21.9222 21.0178 21.7932C21.0462 21.6641 21.1 21.542 21.176 21.4338C22.461 19.5638 23.063 17.7578 23.063 15.9998C23.063 14.2418 22.461 12.4358 21.176 10.5668C21.026 10.3483 20.9689 10.0791 21.0173 9.81841C21.0656 9.55776 21.2155 9.32699 21.434 9.17682M25.691 5.27682C25.5959 5.18621 25.4839 5.11521 25.3614 5.06788C25.2389 5.02055 25.1083 4.99782 24.977 5.00097C24.8457 5.00413 24.7163 5.03312 24.5962 5.08628C24.4761 5.13945 24.3676 5.21574 24.277 5.31082C24.1864 5.4059 24.1154 5.51789 24.0681 5.64041C24.0207 5.76292 23.998 5.89356 24.0012 6.02486C24.0043 6.15616 24.0333 6.28556 24.0865 6.40566C24.1396 6.52576 24.2159 6.63421 24.311 6.72482C26.698 8.99782 27.939 12.4638 27.939 16.0008C27.939 19.5378 26.698 23.0038 24.311 25.2768C24.2159 25.3674 24.1396 25.4759 24.0865 25.596C24.0333 25.7161 24.0043 25.8455 24.0012 25.9768C23.998 26.1081 24.0207 26.2387 24.0681 26.3612C24.1154 26.4838 24.1864 26.5957 24.277 26.6908C24.3676 26.7859 24.4761 26.8622 24.5962 26.9154C24.7163 26.9685 24.8457 26.9975 24.977 27.0007C25.1083 27.0038 25.2389 26.9811 25.3614 26.9338C25.4839 26.8864 25.5959 26.8154 25.691 26.7248C28.554 23.9978 29.938 19.9638 29.938 16.0008C29.938 12.0378 28.554 8.00282 25.69 5.27582" fill="#545454"/>
<rect x="2.70711" y="26.2832" width="35.3217" height="2.99499" rx="1.49749" transform="rotate(-45 2.70711 26.2832)" fill="#545454" stroke="white"/>
</svg>
