<svg width="32" height="33" viewBox="0 0 32 33" fill="none" xmlns="http://www.w3.org/2000/svg">
<path d="M18 5.93282C18 4.53482 16.258 3.89682 15.355 4.96282L11.269 9.79282C11.0812 10.0144 10.8475 10.1924 10.5839 10.3145C10.3204 10.4366 10.0334 10.4998 9.743 10.4998H6C4.93913 10.4998 3.92172 10.9212 3.17157 11.6714C2.42143 12.4215 2 13.439 2 14.4998V18.4998C2 19.5607 2.42143 20.5781 3.17157 21.3282C3.92172 22.0784 4.93913 22.4998 6 22.4998H9.743C10.0335 22.4999 10.3205 22.5633 10.5841 22.6856C10.8476 22.8078 11.0813 22.9861 11.269 23.2078L15.355 28.0368C16.257 29.1028 18 28.4648 18 27.0668V5.93282ZM21.433 9.67582C21.5413 9.60138 21.6631 9.549 21.7916 9.52168C21.9201 9.49436 22.0528 9.49263 22.182 9.51659C22.3111 9.54055 22.4343 9.58973 22.5445 9.66132C22.6547 9.73291 22.7496 9.82551 22.824 9.93382C24.289 12.0638 25.062 14.2578 25.062 16.4998C25.062 18.7418 24.289 20.9358 22.824 23.0668C22.7502 23.1765 22.6554 23.2704 22.5451 23.3432C22.4348 23.416 22.3112 23.4663 22.1813 23.491C22.0515 23.5157 21.918 23.5144 21.7887 23.4873C21.6593 23.4601 21.5367 23.4076 21.4278 23.3327C21.3188 23.2578 21.2259 23.1621 21.1542 23.051C21.0825 22.94 21.0335 22.8158 21.0101 22.6858C20.9867 22.5557 20.9893 22.4222 21.0178 22.2932C21.0462 22.1641 21.1 22.042 21.176 21.9338C22.461 20.0638 23.063 18.2578 23.063 16.4998C23.063 14.7418 22.461 12.9358 21.176 11.0668C21.026 10.8483 20.9689 10.5791 21.0173 10.3184C21.0656 10.0578 21.2155 9.82699 21.434 9.67682M25.691 5.77682C25.5959 5.68621 25.4839 5.61521 25.3614 5.56788C25.2389 5.52055 25.1083 5.49782 24.977 5.50097C24.8457 5.50413 24.7163 5.53312 24.5962 5.58628C24.4761 5.63945 24.3676 5.71574 24.277 5.81082C24.1864 5.9059 24.1154 6.01789 24.0681 6.14041C24.0207 6.26292 23.998 6.39356 24.0012 6.52486C24.0043 6.65616 24.0333 6.78556 24.0865 6.90566C24.1396 7.02576 24.2159 7.13421 24.311 7.22482C26.698 9.49782 27.939 12.9638 27.939 16.5008C27.939 20.0378 26.698 23.5038 24.311 25.7768C24.2159 25.8674 24.1396 25.9759 24.0865 26.096C24.0333 26.2161 24.0043 26.3455 24.0012 26.4768C23.998 26.6081 24.0207 26.7387 24.0681 26.8612C24.1154 26.9837 24.1864 27.0957 24.277 27.1908C24.3676 27.2859 24.4761 27.3622 24.5962 27.4154C24.7163 27.4685 24.8457 27.4975 24.977 27.5007C25.1083 27.5038 25.2389 27.4811 25.3614 27.4338C25.4839 27.3864 25.5959 27.3154 25.691 27.2248C28.554 24.4978 29.938 20.4638 29.938 16.5008C29.938 12.5378 28.554 8.50282 25.69 5.77582" fill="#545454"/>
</svg>
