<svg width="44" height="39" viewBox="0 0 44 39" fill="none" xmlns="http://www.w3.org/2000/svg">
<path d="M24.295 1.59375L42.6423 33.371C42.9221 33.8556 43.0693 34.4052 43.0693 34.9647C43.0693 35.5242 42.9221 36.0739 42.6423 36.5585C42.3626 37.043 41.9602 37.4454 41.4756 37.7252C40.9911 38.0049 40.4414 38.1522 39.8819 38.1522H3.18742C2.6279 38.1522 2.07825 38.0049 1.5937 37.7252C1.10915 37.4454 0.706776 37.043 0.427024 36.5585C0.147272 36.0739 -3.55352e-06 35.5242 0 34.9647C3.55365e-06 34.4052 0.147286 33.8556 0.427044 33.371L18.7743 1.59375C20.0004 -0.53125 23.0668 -0.53125 24.295 1.59375ZM21.5347 26.7793C20.9711 26.7793 20.4306 27.0031 20.0321 27.4016C19.6336 27.8002 19.4097 28.3407 19.4097 28.9043C19.4097 29.4678 19.6336 30.0083 20.0321 30.4069C20.4306 30.8054 20.9711 31.0293 21.5347 31.0293C22.0983 31.0293 22.6388 30.8054 23.0373 30.4069C23.4358 30.0083 23.6597 29.4678 23.6597 28.9043C23.6597 28.3407 23.4358 27.8002 23.0373 27.4016C22.6388 27.0031 22.0983 26.7793 21.5347 26.7793ZM21.5347 11.9043C21.0142 11.9043 20.5118 12.0954 20.1229 12.4413C19.7339 12.7871 19.4854 13.2637 19.4245 13.7806L19.4097 14.0293V22.5293C19.4103 23.0709 19.6177 23.5918 19.9895 23.9857C20.3613 24.3795 20.8694 24.6165 21.4101 24.6482C21.9508 24.68 22.4832 24.5041 22.8986 24.1564C23.3139 23.8088 23.5808 23.3157 23.6448 22.7779L23.6597 22.5293V14.0293C23.6597 13.4657 23.4358 12.9252 23.0373 12.5266C22.6388 12.1281 22.0983 11.9043 21.5347 11.9043Z" fill="#04ACB5"/>
</svg>
