<svg width="28" height="19" viewBox="0 0 28 19" fill="none" xmlns="http://www.w3.org/2000/svg">
<path fill-rule="evenodd" clip-rule="evenodd" d="M22.6625 0.25C23.2376 0.249906 23.805 0.382095 24.3209 0.636342C24.8368 0.89059 25.2873 1.26008 25.6375 1.71625L25.7825 1.92L27.12 3.92625C27.4787 4.46402 27.6922 5.08536 27.74 5.73L27.75 6.0075V14C27.7502 14.6307 27.512 15.2382 27.0831 15.7007C26.6543 16.1632 26.0664 16.4464 25.4375 16.4938L25.25 16.5H25.0375C24.7855 17.2129 24.324 17.8329 23.7134 18.2789C23.1029 18.7249 22.3718 18.976 21.6161 18.9992C20.8603 19.0224 20.1152 18.8168 19.4784 18.4092C18.8416 18.0016 18.3428 17.411 18.0475 16.715L17.9625 16.5H10.0363C9.78402 17.2125 9.32247 17.8321 8.71205 18.2778C8.10164 18.7235 7.37084 18.9744 6.6154 18.9976C5.85997 19.0208 5.11513 18.8153 4.47847 18.408C3.84182 18.0007 3.34304 17.4106 3.0475 16.715L2.9625 16.5H2.75C2.11928 16.5002 1.51179 16.262 1.04931 15.8331C0.586838 15.4043 0.303554 14.8164 0.25625 14.1875L0.25 14V4C0.249947 3.04349 0.615407 2.12311 1.2716 1.42717C1.9278 0.731241 2.82513 0.312366 3.78 0.25625L4 0.25H22.6625ZM21.5 14C21.1685 14 20.8505 14.1317 20.6161 14.3661C20.3817 14.6005 20.25 14.9185 20.25 15.25C20.25 15.5815 20.3817 15.8995 20.6161 16.1339C20.8505 16.3683 21.1685 16.5 21.5 16.5C21.8315 16.5 22.1495 16.3683 22.3839 16.1339C22.6183 15.8995 22.75 15.5815 22.75 15.25C22.75 14.9185 22.6183 14.6005 22.3839 14.3661C22.1495 14.1317 21.8315 14 21.5 14ZM6.5 14C6.16848 14 5.85054 14.1317 5.61612 14.3661C5.3817 14.6005 5.25 14.9185 5.25 15.25C5.25 15.5815 5.3817 15.8995 5.61612 16.1339C5.85054 16.3683 6.16848 16.5 6.5 16.5C6.83152 16.5 7.14946 16.3683 7.38388 16.1339C7.6183 15.8995 7.75 15.5815 7.75 15.25C7.75 14.9185 7.6183 14.6005 7.38388 14.3661C7.14946 14.1317 6.83152 14 6.5 14ZM22.6625 2.75H21.5V7.75H25.25V6.0075C25.2501 5.76058 25.177 5.51918 25.04 5.31375L23.7025 3.30625C23.5883 3.13511 23.4336 2.99479 23.2522 2.89776C23.0708 2.80072 22.8682 2.74997 22.6625 2.75ZM6.5 2.75H4C3.69383 2.75004 3.39833 2.86244 3.16954 3.06589C2.94074 3.26934 2.79457 3.54969 2.75875 3.85375L2.75 4V6.5H6.5V2.75ZM12.75 2.75H9V6.5H12.75V2.75ZM19 2.75H15.25V6.5H19V2.75Z" fill="#C4C4C4"/>
</svg>
