<svg width="30" height="21" viewBox="0 0 30 21" fill="none" xmlns="http://www.w3.org/2000/svg">
<path d="M25.5 7.625H24.75L19.6509 1.51652C19.3698 1.17987 19.0133 0.908106 18.6078 0.721331C18.2022 0.534556 17.7581 0.437554 17.3081 0.4375H7.28109C6.05437 0.4375 4.95141 1.15311 4.49578 2.24471L2.25 7.72652C0.958125 8.04727 0 9.16178 0 10.5V15.5312C0 15.9284 0.335625 16.25 0.75 16.25H3C3 18.6318 5.01469 20.5625 7.5 20.5625C9.98531 20.5625 12 18.6318 12 16.25H18C18 18.6318 20.0147 20.5625 22.5 20.5625C24.9853 20.5625 27 18.6318 27 16.25H29.25C29.6644 16.25 30 15.9284 30 15.5312V11.9375C30 9.55574 27.9853 7.625 25.5 7.625ZM7.5 18.4062C6.25922 18.4062 5.25 17.4391 5.25 16.25C5.25 15.0609 6.25922 14.0938 7.5 14.0938C8.74078 14.0938 9.75 15.0609 9.75 16.25C9.75 17.4391 8.74078 18.4062 7.5 18.4062ZM10.875 7.625H5.48109L7.28109 3.3125H10.875V7.625ZM13.125 7.625V3.3125H17.3081L20.9081 7.625H13.125ZM22.5 18.4062C21.2592 18.4062 20.25 17.4391 20.25 16.25C20.25 15.0609 21.2592 14.0938 22.5 14.0938C23.7408 14.0938 24.75 15.0609 24.75 16.25C24.75 17.4391 23.7408 18.4062 22.5 18.4062Z" fill="#C4C4C4"/>
</svg>
