<svg width="15" height="9" viewBox="0 0 15 9" fill="none" xmlns="http://www.w3.org/2000/svg">
<path d="M14.2622 0.623244C14.0629 0.424056 13.7927 0.312158 13.511 0.312158C13.2292 0.312158 12.959 0.424056 12.7598 0.623244L7.50041 5.88262L2.24103 0.623244C2.04064 0.429701 1.77225 0.322607 1.49367 0.325027C1.21508 0.327448 0.948594 0.43919 0.751598 0.636186C0.554602 0.833182 0.442862 1.09967 0.440441 1.37825C0.43802 1.65684 0.545114 1.92523 0.738657 2.12562L6.74922 8.13618C6.94847 8.33537 7.21867 8.44727 7.50041 8.44727C7.78214 8.44727 8.05235 8.33537 8.25159 8.13618L14.2622 2.12562C14.4613 1.92637 14.5732 1.65617 14.5732 1.37443C14.5732 1.09269 14.4613 0.822492 14.2622 0.623244Z" fill="#979797"/>
</svg>
