<svg width="9" height="10" viewBox="0 0 9 10" fill="none" xmlns="http://www.w3.org/2000/svg">
<path d="M4.85942 0.0200515C4.96336 -0.0103072 5.07436 -0.00609984 5.1757 0.0320411C5.27705 0.070182 5.36328 0.140195 5.42142 0.231552L8.92142 5.73155C8.96954 5.80715 8.99647 5.8943 8.99937 5.98388C9.00226 6.07345 8.98103 6.16216 8.9379 6.24072C8.89476 6.31927 8.8313 6.38479 8.75416 6.43041C8.67702 6.47604 8.58904 6.50009 8.49942 6.50005H4.99942C4.86681 6.50005 4.73963 6.44737 4.64587 6.3536C4.5521 6.25984 4.49942 6.13266 4.49942 6.00005V0.500051C4.49942 0.391866 4.53451 0.2866 4.59942 0.200052C4.66433 0.113503 4.75556 0.0503433 4.85942 0.0200515ZM0.0944188 7.20755C0.140697 7.14339 0.201539 7.09113 0.271945 7.05506C0.34235 7.01898 0.42031 7.00013 0.499419 7.00005H8.49942C8.57884 7.00001 8.65712 7.01888 8.7278 7.05511C8.79847 7.09134 8.8595 7.14388 8.90583 7.20839C8.95215 7.27289 8.98245 7.34751 8.9942 7.42605C9.00596 7.50459 8.99883 7.58481 8.97342 7.66005C8.86992 7.96505 8.71842 8.26005 8.54042 8.52755C8.27042 8.93255 7.76492 9.50005 6.99942 9.50005H1.99942C1.23442 9.50005 0.728419 8.93255 0.458419 8.52755C0.27732 8.25807 0.131783 7.96632 0.0254188 7.65955C0.000563128 7.58412 -0.00618768 7.5039 0.0057125 7.42537C0.0176127 7.34685 0.0478296 7.27223 0.0939187 7.20755H0.0944188ZM3.07542 1.73505C3.13296 1.64298 3.21891 1.57215 3.32027 1.53325C3.42163 1.49435 3.5329 1.48949 3.63726 1.51943C3.74162 1.54936 3.83341 1.61244 3.89874 1.69915C3.96408 1.78586 3.99942 1.89148 3.99942 2.00005V6.00005C3.99942 6.13266 3.94674 6.25984 3.85297 6.3536C3.7592 6.44737 3.63203 6.50005 3.49942 6.50005H0.999419C0.910166 6.50005 0.82254 6.47616 0.745639 6.43086C0.668737 6.38556 0.605363 6.3205 0.562096 6.24244C0.518829 6.16437 0.497247 6.07615 0.49959 5.98693C0.501933 5.89771 0.528115 5.81074 0.575419 5.73505L3.07542 1.73505Z" fill="#0632D2"/>
</svg>
