<svg width="11" height="7" viewBox="0 0 11 7" fill="none" xmlns="http://www.w3.org/2000/svg">
<path fill-rule="evenodd" clip-rule="evenodd" d="M8.21792 1.82922e-08C8.42879 -3.4376e-05 8.63685 0.0484347 8.826 0.141659C9.01515 0.234883 9.18033 0.370364 9.30875 0.537625L9.36192 0.612333L9.85233 1.34796C9.98385 1.54514 10.0622 1.77297 10.0797 2.00933L10.0833 2.11108V5.04167C10.0834 5.27293 9.99606 5.49568 9.83881 5.66525C9.68156 5.83483 9.46603 5.9387 9.23542 5.95604L9.16667 5.95833H9.08875C8.99635 6.21971 8.82712 6.44707 8.60325 6.6106C8.37938 6.77412 8.11132 6.86618 7.83422 6.87471C7.55712 6.88323 7.28391 6.80782 7.05042 6.65836C6.81692 6.5089 6.63404 6.29238 6.52575 6.03717L6.49458 5.95833H3.58829C3.49581 6.21957 3.32657 6.44678 3.10275 6.61019C2.87893 6.7736 2.61097 6.8656 2.33398 6.87412C2.05699 6.88264 1.78388 6.80729 1.55044 6.65795C1.317 6.5086 1.13412 6.29223 1.02575 6.03717L0.994583 5.95833H0.916667C0.685402 5.95841 0.462657 5.87106 0.293082 5.71381C0.123507 5.55656 0.0196365 5.34103 0.00229167 5.11042L2.13604e-09 5.04167V1.375C-1.9535e-05 1.02428 0.133982 0.686806 0.374588 0.43163C0.615194 0.176455 0.944216 0.0228674 1.29433 0.00229174L1.375 1.82922e-08H8.21792ZM7.79167 5.04167C7.67011 5.04167 7.55353 5.08995 7.46758 5.17591C7.38162 5.26186 7.33333 5.37844 7.33333 5.5C7.33333 5.62156 7.38162 5.73814 7.46758 5.82409C7.55353 5.91005 7.67011 5.95833 7.79167 5.95833C7.91322 5.95833 8.0298 5.91005 8.11576 5.82409C8.20171 5.73814 8.25 5.62156 8.25 5.5C8.25 5.37844 8.20171 5.26186 8.11576 5.17591C8.0298 5.08995 7.91322 5.04167 7.79167 5.04167ZM2.29167 5.04167C2.17011 5.04167 2.05353 5.08995 1.96758 5.17591C1.88162 5.26186 1.83333 5.37844 1.83333 5.5C1.83333 5.62156 1.88162 5.73814 1.96758 5.82409C2.05353 5.91005 2.17011 5.95833 2.29167 5.95833C2.41322 5.95833 2.5298 5.91005 2.61576 5.82409C2.70171 5.73814 2.75 5.62156 2.75 5.5C2.75 5.37844 2.70171 5.26186 2.61576 5.17591C2.5298 5.08995 2.41322 5.04167 2.29167 5.04167ZM8.21792 0.916667H7.79167V2.75H9.16667V2.11108C9.16669 2.02055 9.13989 1.93203 9.08967 1.85671L8.59925 1.12063C8.55738 1.05787 8.50067 1.00642 8.43415 0.970844C8.36763 0.935265 8.29335 0.916655 8.21792 0.916667ZM2.29167 0.916667H1.375C1.26274 0.916681 1.15439 0.957897 1.0705 1.03249C0.986605 1.10709 0.933009 1.20988 0.919875 1.32137L0.916667 1.375V2.29167H2.29167V0.916667ZM4.58333 0.916667H3.20833V2.29167H4.58333V0.916667ZM6.875 0.916667H5.5V2.29167H6.875V0.916667Z" fill="#6C06D2"/>
</svg>
