<svg width="11" height="8" viewBox="0 0 11 8" fill="none" xmlns="http://www.w3.org/2000/svg">
<path fill-rule="evenodd" clip-rule="evenodd" d="M10 6.5C10.1326 6.5 10.2598 6.55268 10.3536 6.64645C10.4473 6.74021 10.5 6.86739 10.5 7C10.5 7.13261 10.4473 7.25979 10.3536 7.35355C10.2598 7.44732 10.1326 7.5 10 7.5H0.500003C0.367395 7.5 0.240218 7.44732 0.14645 7.35355C0.0526815 7.25979 3.13343e-06 7.13261 3.13343e-06 7C3.13343e-06 6.86739 0.0526815 6.74021 0.14645 6.64645C0.240218 6.55268 0.367395 6.5 0.500003 6.5H10ZM5.5 0C7.112 0 8.471 0.5375 9.434 1.2945C10.3795 2.0375 11 3.0425 11 4C11 4.421 10.871 4.78 10.6435 5.07C10.422 5.353 10.1265 5.545 9.8255 5.677C9.2325 5.936 8.527 6 8 6H0.997003C0.865841 5.99993 0.73598 5.974 0.614852 5.92369C0.493724 5.87337 0.383708 5.79966 0.291102 5.70678C0.198496 5.61389 0.125118 5.50366 0.0751669 5.38238C0.0252163 5.2611 -0.00032561 5.13116 3.13343e-06 5V1C3.13343e-06 0.4495 0.445003 0 0.999003 0H5.5ZM3 1H1V2.5H3V1ZM5.5 1H4V2.5H6V1.02C5.88985 1.01108 5.77948 1.00525 5.669 1.0025L5.5 1ZM7 1.1915V2.5H9.2755C9.13316 2.34875 8.97955 2.20852 8.816 2.0805C8.335 1.7025 7.721 1.383 7 1.1915Z" fill="#246C45"/>
</svg>
