<svg width="6" height="10" viewBox="0 0 6 10" fill="none" xmlns="http://www.w3.org/2000/svg">
<path d="M3.89953 1.875C4.39641 1.875 4.79953 1.45508 4.79953 0.9375C4.79953 0.419922 4.39641 0 3.89953 0C3.40266 0 2.99953 0.419922 2.99953 0.9375C2.99953 1.45508 3.40266 1.875 3.89953 1.875ZM5.67141 4.78711L5.23453 4.55664L5.05266 3.98242C4.77703 3.11133 4.00828 2.50195 3.13641 2.5C2.46141 2.49805 2.08828 2.69727 1.38703 2.99219C0.982031 3.16211 0.650156 3.48438 0.455156 3.89453L0.329531 4.16016C0.183281 4.46875 0.301406 4.84375 0.595781 4.99805C0.888281 5.15234 1.24453 5.02734 1.39266 4.71875L1.51828 4.45312C1.58391 4.31641 1.69266 4.20898 1.82766 4.15234L2.33016 3.94141L2.04516 5.12695C1.94766 5.5332 2.05266 5.96484 2.32453 6.27539L3.44766 7.55273C3.58266 7.70703 3.67828 7.89258 3.72703 8.09375L4.07016 9.52539C4.15078 9.85938 4.47703 10.0645 4.79766 9.98047C5.11828 9.89648 5.31516 9.55664 5.23453 9.22266L4.81828 7.48438C4.76953 7.2832 4.67391 7.0957 4.53891 6.94336L3.68578 5.97266L4.00828 4.63086L4.11141 4.95312C4.21078 5.26758 4.42453 5.52734 4.70578 5.67578L5.14266 5.90625C5.43516 6.06055 5.79141 5.93555 5.93953 5.62695C6.08391 5.32031 5.96578 4.94141 5.67141 4.78711ZM1.37953 7.53516C1.31953 7.69336 1.22953 7.83594 1.11328 7.95508L0.175781 8.93359C-0.0585938 9.17773 -0.0585938 9.57422 0.175781 9.81836C0.410156 10.0625 0.788906 10.0625 1.02328 9.81836L2.13703 8.6582C2.25141 8.53906 2.34141 8.39648 2.40328 8.23828L2.65641 7.57812C1.61953 6.40039 1.93078 6.76172 1.76766 6.5293L1.37953 7.53516Z" fill="#CBCBCB"/>
</svg>
