<svg width="11" height="9" viewBox="0 0 11 9" fill="none" xmlns="http://www.w3.org/2000/svg">
<path d="M8.41887 3.4375C8.36043 3.4375 8.10863 3.43922 8.01775 3.44416L6.7766 3.47682L3.91445 0H2.56502L4.16754 3.53654L2.07689 3.56748L1.12557 2.40625H0.00601562L0.448809 4.42965C0.452031 4.44125 0.455898 4.45264 0.460195 4.46381V4.46703C0.455774 4.47813 0.451972 4.48946 0.448809 4.50098L0 6.53125H1.11246L2.08893 5.34961L4.16797 5.39623L2.5648 8.9375H3.91832L6.77574 5.4624L8.0169 5.49549C8.10906 5.50043 8.36064 5.50215 8.41779 5.50215C8.94094 5.50215 9.36891 5.43039 9.68988 5.28859C10.2343 5.04883 10.3155 4.67199 10.3155 4.46875C10.3155 3.82293 9.60652 3.4375 8.41887 3.4375Z" fill="#FFC100"/>
</svg>
