<svg width="9" height="7" viewBox="0 0 9 7" fill="none" xmlns="http://www.w3.org/2000/svg">
<path d="M7.65 2.1875H7.425L5.89528 0.328398C5.81094 0.225939 5.70398 0.143228 5.58233 0.0863834C5.46067 0.0295389 5.32742 1.64076e-05 5.19244 0H2.18433C1.81631 0 1.48542 0.217793 1.34873 0.55002L0.675 2.2184C0.287437 2.31602 0 2.65521 0 3.0625V4.59375C0 4.71461 0.100687 4.8125 0.225 4.8125H0.9C0.9 5.53738 1.50441 6.125 2.25 6.125C2.99559 6.125 3.6 5.53738 3.6 4.8125H5.4C5.4 5.53738 6.00441 6.125 6.75 6.125C7.49559 6.125 8.1 5.53738 8.1 4.8125H8.775C8.89931 4.8125 9 4.71461 9 4.59375V3.5C9 2.77512 8.39559 2.1875 7.65 2.1875ZM2.25 5.46875C1.87777 5.46875 1.575 5.17439 1.575 4.8125C1.575 4.45061 1.87777 4.15625 2.25 4.15625C2.62223 4.15625 2.925 4.45061 2.925 4.8125C2.925 5.17439 2.62223 5.46875 2.25 5.46875ZM3.2625 2.1875H1.64433L2.18433 0.875H3.2625V2.1875ZM3.9375 2.1875V0.875H5.19244L6.27244 2.1875H3.9375ZM6.75 5.46875C6.37777 5.46875 6.075 5.17439 6.075 4.8125C6.075 4.45061 6.37777 4.15625 6.75 4.15625C7.12223 4.15625 7.425 4.45061 7.425 4.8125C7.425 5.17439 7.12223 5.46875 6.75 5.46875Z" fill="#2D8F8A"/>
</svg>
