<svg width="11" height="11" viewBox="0 0 11 11" fill="none" xmlns="http://www.w3.org/2000/svg">
<path d="M5.5 6.6C5.60878 6.6 5.71512 6.56774 5.80556 6.50731C5.89601 6.44687 5.96651 6.36098 6.00813 6.26048C6.04976 6.15998 6.06065 6.04939 6.03943 5.9427C6.01821 5.83601 5.96583 5.73801 5.88891 5.66109C5.81199 5.58417 5.71399 5.53179 5.6073 5.51057C5.50061 5.48935 5.39002 5.50024 5.28952 5.54187C5.18902 5.58349 5.10313 5.65399 5.04269 5.74444C4.98226 5.83488 4.95 5.94122 4.95 6.05C4.95 6.19587 5.00795 6.33576 5.11109 6.43891C5.21424 6.54205 5.35413 6.6 5.5 6.6ZM8.25 6.6C8.35878 6.6 8.46512 6.56774 8.55556 6.50731C8.64601 6.44687 8.71651 6.36098 8.75813 6.26048C8.79976 6.15998 8.81065 6.04939 8.78943 5.9427C8.76821 5.83601 8.71583 5.73801 8.63891 5.66109C8.56199 5.58417 8.46399 5.53179 8.3573 5.51057C8.25061 5.48935 8.14002 5.50024 8.03953 5.54187C7.93903 5.58349 7.85313 5.65399 7.79269 5.74444C7.73226 5.83488 7.7 5.94122 7.7 6.05C7.7 6.19587 7.75795 6.33576 7.86109 6.43891C7.96424 6.54205 8.10413 6.6 8.25 6.6ZM5.5 8.8C5.60878 8.8 5.71512 8.76774 5.80556 8.70731C5.89601 8.64687 5.96651 8.56098 6.00813 8.46048C6.04976 8.35998 6.06065 8.24939 6.03943 8.1427C6.01821 8.03601 5.96583 7.93801 5.88891 7.86109C5.81199 7.78417 5.71399 7.73179 5.6073 7.71057C5.50061 7.68935 5.39002 7.70024 5.28952 7.74187C5.18902 7.78349 5.10313 7.85399 5.04269 7.94444C4.98226 8.03488 4.95 8.14122 4.95 8.25C4.95 8.39587 5.00795 8.53576 5.11109 8.63891C5.21424 8.74205 5.35413 8.8 5.5 8.8ZM8.25 8.8C8.35878 8.8 8.46512 8.76774 8.55556 8.70731C8.64601 8.64687 8.71651 8.56098 8.75813 8.46048C8.79976 8.35998 8.81065 8.24939 8.78943 8.1427C8.76821 8.03601 8.71583 7.93801 8.63891 7.86109C8.56199 7.78417 8.46399 7.73179 8.3573 7.71057C8.25061 7.68935 8.14002 7.70024 8.03953 7.74187C7.93903 7.78349 7.85313 7.85399 7.79269 7.94444C7.73226 8.03488 7.7 8.14122 7.7 8.25C7.7 8.39587 7.75795 8.53576 7.86109 8.63891C7.96424 8.74205 8.10413 8.8 8.25 8.8ZM2.75 6.6C2.85878 6.6 2.96512 6.56774 3.05556 6.50731C3.14601 6.44687 3.21651 6.36098 3.25813 6.26048C3.29976 6.15998 3.31065 6.04939 3.28943 5.9427C3.26821 5.83601 3.21583 5.73801 3.13891 5.66109C3.06199 5.58417 2.96399 5.53179 2.8573 5.51057C2.75061 5.48935 2.64002 5.50024 2.53952 5.54187C2.43902 5.58349 2.35313 5.65399 2.29269 5.74444C2.23226 5.83488 2.2 5.94122 2.2 6.05C2.2 6.19587 2.25795 6.33576 2.36109 6.43891C2.46424 6.54205 2.60413 6.6 2.75 6.6ZM9.35 1.1H8.8V0.55C8.8 0.404131 8.74205 0.264236 8.63891 0.161091C8.53576 0.0579462 8.39587 0 8.25 0C8.10413 0 7.96424 0.0579462 7.86109 0.161091C7.75795 0.264236 7.7 0.404131 7.7 0.55V1.1H3.3V0.55C3.3 0.404131 3.24205 0.264236 3.13891 0.161091C3.03576 0.0579462 2.89587 0 2.75 0C2.60413 0 2.46424 0.0579462 2.36109 0.161091C2.25795 0.264236 2.2 0.404131 2.2 0.55V1.1H1.65C1.21239 1.1 0.792709 1.27384 0.483274 1.58327C0.173839 1.89271 0 2.31239 0 2.75V9.35C0 9.78761 0.173839 10.2073 0.483274 10.5167C0.792709 10.8262 1.21239 11 1.65 11H9.35C9.78761 11 10.2073 10.8262 10.5167 10.5167C10.8262 10.2073 11 9.78761 11 9.35V2.75C11 2.31239 10.8262 1.89271 10.5167 1.58327C10.2073 1.27384 9.78761 1.1 9.35 1.1ZM9.9 9.35C9.9 9.49587 9.84205 9.63576 9.73891 9.73891C9.63576 9.84205 9.49587 9.9 9.35 9.9H1.65C1.50413 9.9 1.36424 9.84205 1.26109 9.73891C1.15795 9.63576 1.1 9.49587 1.1 9.35V4.4H9.9V9.35ZM9.9 3.3H1.1V2.75C1.1 2.60413 1.15795 2.46424 1.26109 2.36109C1.36424 2.25795 1.50413 2.2 1.65 2.2H9.35C9.49587 2.2 9.63576 2.25795 9.73891 2.36109C9.84205 2.46424 9.9 2.60413 9.9 2.75V3.3ZM2.75 8.8C2.85878 8.8 2.96512 8.76774 3.05556 8.70731C3.14601 8.64687 3.21651 8.56098 3.25813 8.46048C3.29976 8.35998 3.31065 8.24939 3.28943 8.1427C3.26821 8.03601 3.21583 7.93801 3.13891 7.86109C3.06199 7.78417 2.96399 7.73179 2.8573 7.71057C2.75061 7.68935 2.64002 7.70024 2.53952 7.74187C2.43902 7.78349 2.35313 7.85399 2.29269 7.94444C2.23226 8.03488 2.2 8.14122 2.2 8.25C2.2 8.39587 2.25795 8.53576 2.36109 8.63891C2.46424 8.74205 2.60413 8.8 2.75 8.8Z" fill="#4FBDB7"/>
</svg>
