<svg width="10" height="10" viewBox="0 0 10 10" fill="none" xmlns="http://www.w3.org/2000/svg">
<path d="M5 5C4.3125 5 3.72396 4.75521 3.23437 4.26562C2.74479 3.77604 2.5 3.1875 2.5 2.5C2.5 1.8125 2.74479 1.22396 3.23437 0.734375C3.72396 0.244792 4.3125 0 5 0C5.6875 0 6.27604 0.244792 6.76562 0.734375C7.25521 1.22396 7.5 1.8125 7.5 2.5C7.5 3.1875 7.25521 3.77604 6.76562 4.26562C6.27604 4.75521 5.6875 5 5 5ZM0 10V8.25C0 7.89583 0.0912501 7.57042 0.27375 7.27375C0.45625 6.97708 0.698333 6.75042 1 6.59375C1.64583 6.27083 2.30208 6.02875 2.96875 5.8675C3.63542 5.70625 4.3125 5.62542 5 5.625C5.6875 5.62458 6.36458 5.70542 7.03125 5.8675C7.69792 6.02958 8.35417 6.27167 9 6.59375C9.30208 6.75 9.54437 6.97667 9.72687 7.27375C9.90937 7.57083 10.0004 7.89625 10 8.25V10H0ZM1.25 8.75H8.75V8.25C8.75 8.13542 8.72146 8.03125 8.66437 7.9375C8.60729 7.84375 8.53166 7.77083 8.4375 7.71875C7.875 7.4375 7.30729 7.22667 6.73437 7.08625C6.16146 6.94583 5.58333 6.87542 5 6.875C4.41667 6.87458 3.83854 6.945 3.26562 7.08625C2.69271 7.2275 2.125 7.43833 1.5625 7.71875C1.46875 7.77083 1.39312 7.84375 1.33562 7.9375C1.27812 8.03125 1.24958 8.13542 1.25 8.25V8.75ZM5 3.75C5.34375 3.75 5.63812 3.62771 5.88312 3.38313C6.12812 3.13854 6.25042 2.84417 6.25 2.5C6.24958 2.15583 6.12729 1.86167 5.88312 1.6175C5.63896 1.37333 5.34458 1.25083 5 1.25C4.65542 1.24917 4.36125 1.37167 4.1175 1.6175C3.87375 1.86333 3.75125 2.1575 3.75 2.5C3.74875 2.8425 3.87125 3.13688 4.1175 3.38313C4.36375 3.62938 4.65792 3.75167 5 3.75Z" fill="#4FBDB7"/>
</svg>
