<svg width="7" height="15" viewBox="0 0 7 15" fill="none" xmlns="http://www.w3.org/2000/svg">
<path d="M0.00265377 7.00125C0.00219745 6.7676 0.0835721 6.54116 0.232653 6.36125L5.23265 0.361252C5.40239 0.157036 5.6463 0.0286112 5.91073 0.00423145C6.17516 -0.0201483 6.43844 0.0615137 6.64265 0.231252C6.84687 0.400991 6.97529 0.644902 6.99967 0.909329C7.02405 1.17375 6.94239 1.43704 6.77265 1.64125L2.29265 7.00125L6.61265 12.3613C6.69572 12.4635 6.75775 12.5812 6.79518 12.7076C6.83261 12.8339 6.84471 12.9664 6.83077 13.0974C6.81683 13.2285 6.77713 13.3554 6.71396 13.4711C6.65079 13.5867 6.56538 13.6887 6.46265 13.7713C6.35983 13.8628 6.23921 13.9322 6.10833 13.975C5.97746 14.0178 5.83916 14.0331 5.70209 14.0199C5.56503 14.0068 5.43216 13.9655 5.3118 13.8986C5.19145 13.8317 5.0862 13.7407 5.00265 13.6313L0.172654 7.63125C0.0471379 7.44617 -0.0127171 7.22435 0.00265377 7.00125Z" fill="#242424"/>
</svg>
