<svg width="11" height="13" viewBox="0 0 11 13" fill="none" xmlns="http://www.w3.org/2000/svg">
<path d="M0.50005 5.19913H0.500056V5.19675C0.500056 2.63524 2.71661 0.5 5.5 0.5C8.28318 0.5 10.4999 2.63504 10.4999 5.2L10.5 5.20238C10.5089 7.08903 9.25662 8.91497 7.89774 10.3225C7.22937 11.0147 6.5586 11.5818 6.05427 11.976C5.83029 12.151 5.63996 12.2913 5.49834 12.3927C5.0203 12.0557 4.01411 11.3023 3.02511 10.2707C1.69639 8.88468 0.491044 7.09164 0.50005 5.19913ZM2.75 5.19675C2.75 6.622 4.02106 7.72222 5.5 7.72222C6.97731 7.72222 8.25 6.62998 8.25 5.2C8.25 3.79983 7.11597 2.62963 5.5 2.62963C4.00743 2.62963 2.75 3.78403 2.75 5.19675Z" stroke="#4FBDB7"/>
</svg>
