<svg width="37" height="30" viewBox="0 0 37 30" fill="none" xmlns="http://www.w3.org/2000/svg">
<path d="M20.7501 9.74995C26.2941 9.74995 29.4419 13.2892 29.8986 17.5664H30.0381C33.6066 17.5664 36.5001 20.3497 36.5001 23.7832C36.5001 27.2167 33.6066 30 30.0381 30H11.4621C7.89363 30 5.00013 27.2167 5.00013 23.7832C5.00013 20.3497 7.89363 17.5664 11.4621 17.5664H11.6016C12.0606 13.2599 15.2039 9.74995 20.7501 9.74995ZM20.7501 11.9999C17.0376 11.9999 13.8044 14.8574 13.8044 18.8062C13.8044 19.4317 13.2329 19.9222 12.5781 19.9222H11.3406C9.08163 19.92 7.25013 21.6749 7.25013 23.8349C7.25013 25.995 9.08163 27.75 11.3406 27.75H30.1596C32.4186 27.75 34.2501 25.995 34.2501 23.8349C34.2501 21.6749 32.4186 19.92 30.1596 19.92H28.9221C28.2674 19.9222 27.6959 19.4317 27.6959 18.8062C27.6959 14.8079 24.4604 11.9999 20.7501 11.9999ZM4.55688 15.8249C4.64337 16.0744 4.63938 16.3463 4.54559 16.5931C4.45181 16.8399 4.27421 17.0459 4.04388 17.1749L3.85938 17.2559L2.05713 17.8769C1.79116 17.97 1.49995 17.9599 1.24109 17.8486C0.982234 17.7372 0.774578 17.5328 0.659192 17.2758C0.543807 17.0187 0.529094 16.7277 0.617964 16.4603C0.706834 16.1929 0.892816 15.9686 1.13913 15.8317L1.32363 15.7507L3.12813 15.1297C3.41009 15.0329 3.71893 15.052 3.98682 15.1828C4.25471 15.3136 4.45974 15.5454 4.55688 15.8272M16.0701 6.37495C16.8194 6.73945 17.4764 7.2142 18.0366 7.76995C17.1216 7.95895 16.2696 8.2402 15.4806 8.6137C14.4644 8.00204 13.2677 7.76141 12.094 7.93275C10.9204 8.10409 9.8424 8.67681 9.04348 9.55345C8.24455 10.4301 7.77408 11.5565 7.71212 12.7409C7.65015 13.9254 8.00053 15.0947 8.70363 16.0499C7.96113 16.2704 7.26363 16.5922 6.62238 16.9949C5.75249 15.6399 5.34966 14.0375 5.47531 12.4322C5.60097 10.8269 6.24821 9.3067 7.31835 8.1035C8.38848 6.90031 9.82276 6.08012 11.4025 5.76804C12.9822 5.45595 14.6206 5.66909 16.0679 6.37495M2.56113 6.75745L2.75013 6.82945L4.46463 7.6642C4.71738 7.78707 4.91499 8.00008 5.01857 8.26133C5.12216 8.52258 5.12421 8.81314 5.02432 9.07582C4.92444 9.33851 4.72986 9.55429 4.47887 9.68072C4.22788 9.80715 3.93866 9.83505 3.66813 9.75895L3.47688 9.68695L1.76463 8.8522C1.51187 8.72933 1.31426 8.51631 1.21068 8.25507C1.1071 7.99382 1.10504 7.70326 1.20493 7.44058C1.30481 7.17789 1.49939 6.9621 1.75038 6.83568C2.00137 6.70925 2.29059 6.68134 2.56113 6.75745ZM18.4754 1.4137C18.7123 1.52928 18.9011 1.72437 19.0088 1.96493C19.1165 2.2055 19.1364 2.47625 19.0649 2.72995L18.9929 2.91895L18.1581 4.63345C18.0353 4.8862 17.8222 5.08381 17.561 5.1874C17.2997 5.29098 17.0092 5.29303 16.7465 5.19315C16.4838 5.09327 16.268 4.89868 16.1416 4.64769C16.0152 4.3967 15.9873 4.10748 16.0634 3.83695L16.1354 3.6457L16.9701 1.9312C17.0349 1.79805 17.1254 1.67901 17.2363 1.58089C17.3472 1.48277 17.4764 1.40752 17.6164 1.35944C17.7565 1.31136 17.9047 1.29141 18.0524 1.30072C18.2002 1.31003 18.3425 1.34842 18.4754 1.4137ZM9.95013 1.3417L10.0334 1.5262L10.6544 3.3307C10.7457 3.59632 10.7343 3.88649 10.6225 4.14415C10.5107 4.40181 10.3065 4.60833 10.0502 4.72311C9.79384 4.83789 9.50382 4.85263 9.23716 4.76442C8.97049 4.67622 8.74647 4.49145 8.60913 4.24645L8.52588 4.06195L7.90713 2.2597C7.81727 1.9947 7.8294 1.70573 7.94114 1.44919C8.05288 1.19265 8.25621 0.98696 8.51145 0.872273C8.76668 0.757585 9.0555 0.742133 9.32151 0.828931C9.58753 0.915729 9.81165 1.09855 9.95013 1.3417Z" fill="#262626"/>
</svg>
