<svg width="6" height="10" viewBox="0 0 6 10" fill="none" xmlns="http://www.w3.org/2000/svg">
<path d="M3.90051 1.875C4.39738 1.875 4.80051 1.45508 4.80051 0.9375C4.80051 0.419922 4.39738 0 3.90051 0C3.40363 0 3.00051 0.419922 3.00051 0.9375C3.00051 1.45508 3.40363 1.875 3.90051 1.875ZM5.67238 4.78711L5.23551 4.55664L5.05363 3.98242C4.77801 3.11133 4.00926 2.50195 3.13738 2.5C2.46238 2.49805 2.08926 2.69727 1.38801 2.99219C0.983008 3.16211 0.651133 3.48438 0.456133 3.89453L0.330508 4.16016C0.184258 4.46875 0.302383 4.84375 0.596758 4.99805C0.889258 5.15234 1.24551 5.02734 1.39363 4.71875L1.51926 4.45312C1.58488 4.31641 1.69363 4.20898 1.82863 4.15234L2.33113 3.94141L2.04613 5.12695C1.94863 5.5332 2.05363 5.96484 2.32551 6.27539L3.44863 7.55273C3.58363 7.70703 3.67926 7.89258 3.72801 8.09375L4.07113 9.52539C4.15176 9.85938 4.47801 10.0645 4.79863 9.98047C5.11926 9.89648 5.31613 9.55664 5.23551 9.22266L4.81926 7.48438C4.77051 7.2832 4.67488 7.0957 4.53988 6.94336L3.68676 5.97266L4.00926 4.63086L4.11238 4.95312C4.21176 5.26758 4.42551 5.52734 4.70676 5.67578L5.14363 5.90625C5.43613 6.06055 5.79238 5.93555 5.94051 5.62695C6.08488 5.32031 5.96676 4.94141 5.67238 4.78711ZM1.38051 7.53516C1.32051 7.69336 1.23051 7.83594 1.11426 7.95508L0.176758 8.93359C-0.0576172 9.17773 -0.0576172 9.57422 0.176758 9.81836C0.411133 10.0625 0.789883 10.0625 1.02426 9.81836L2.13801 8.6582C2.25238 8.53906 2.34238 8.39648 2.40426 8.23828L2.65738 7.57812C1.62051 6.40039 1.93176 6.76172 1.76863 6.5293L1.38051 7.53516Z" fill="white"/>
</svg>
