<svg width="8" height="10" viewBox="0 0 8 10" fill="none" xmlns="http://www.w3.org/2000/svg">
<path d="M7 4.5H4.5V2H7M6.25 7.5C6.05109 7.5 5.86032 7.42098 5.71967 7.28033C5.57902 7.13968 5.5 6.94891 5.5 6.75C5.5 6.55109 5.57902 6.36032 5.71967 6.21967C5.86032 6.07902 6.05109 6 6.25 6C6.44891 6 6.63968 6.07902 6.78033 6.21967C6.92098 6.36032 7 6.55109 7 6.75C7 6.94891 6.92098 7.13968 6.78033 7.28033C6.63968 7.42098 6.44891 7.5 6.25 7.5ZM3.5 4.5H1V2H3.5M1.75 7.5C1.55109 7.5 1.36032 7.42098 1.21967 7.28033C1.07902 7.13968 1 6.94891 1 6.75C1 6.55109 1.07902 6.36032 1.21967 6.21967C1.36032 6.07902 1.55109 6 1.75 6C1.94891 6 2.13968 6.07902 2.28033 6.21967C2.42098 6.36032 2.5 6.55109 2.5 6.75C2.5 6.94891 2.42098 7.13968 2.28033 7.28033C2.13968 7.42098 1.94891 7.5 1.75 7.5ZM4 0C1.79 0 0 0.25 0 2V6.75C0 7.21413 0.184375 7.65925 0.512563 7.98744C0.840752 8.31563 1.28587 8.5 1.75 8.5L1 9.25V9.5H7V9.25L6.25 8.5C6.71413 8.5 7.15925 8.31563 7.48744 7.98744C7.81563 7.65925 8 7.21413 8 6.75V2C8 0.25 6.21 0 4 0Z" fill="white"/>
</svg>
