<svg width="11" height="8" viewBox="0 0 11 8" fill="none" xmlns="http://www.w3.org/2000/svg">
<path fill-rule="evenodd" clip-rule="evenodd" d="M8.67592 0.291016C8.8868 0.290981 9.09486 0.33945 9.28401 0.432675C9.47316 0.525899 9.63833 0.66138 9.76676 0.828641L9.81992 0.903349L10.3103 1.63897C10.4419 1.83615 10.5202 2.06398 10.5377 2.30035L10.5413 2.4021V5.33268C10.5414 5.56395 10.4541 5.78669 10.2968 5.95627C10.1396 6.12584 9.92404 6.22971 9.69342 6.24706L9.62467 6.24935H9.54676C9.45436 6.51073 9.28513 6.73809 9.06126 6.90161C8.83739 7.06514 8.56933 7.1572 8.29223 7.16572C8.01513 7.17425 7.74192 7.09884 7.50842 6.94938C7.27493 6.79992 7.09205 6.58339 6.98376 6.32818L6.95259 6.24935H4.0463C3.95382 6.51059 3.78458 6.7378 3.56076 6.90121C3.33694 7.06462 3.06898 7.15661 2.79199 7.16513C2.515 7.17366 2.24189 7.09831 2.00845 6.94896C1.77501 6.79962 1.59212 6.58324 1.48376 6.32818L1.45259 6.24935H1.37467C1.14341 6.24942 0.920665 6.16208 0.75109 6.00483C0.581515 5.84758 0.477644 5.63205 0.460299 5.40143L0.458008 5.33268V1.66602C0.457988 1.31529 0.59199 0.977821 0.832596 0.722646C1.0732 0.467471 1.40222 0.313883 1.75234 0.293307L1.83301 0.291016H8.67592ZM8.24967 5.33268C8.12812 5.33268 8.01154 5.38097 7.92558 5.46692C7.83963 5.55288 7.79134 5.66946 7.79134 5.79102C7.79134 5.91257 7.83963 6.02915 7.92558 6.11511C8.01154 6.20106 8.12812 6.24935 8.24967 6.24935C8.37123 6.24935 8.48781 6.20106 8.57376 6.11511C8.65972 6.02915 8.70801 5.91257 8.70801 5.79102C8.70801 5.66946 8.65972 5.55288 8.57376 5.46692C8.48781 5.38097 8.37123 5.33268 8.24967 5.33268ZM2.74967 5.33268C2.62812 5.33268 2.51154 5.38097 2.42558 5.46692C2.33963 5.55288 2.29134 5.66946 2.29134 5.79102C2.29134 5.91257 2.33963 6.02915 2.42558 6.11511C2.51154 6.20106 2.62812 6.24935 2.74967 6.24935C2.87123 6.24935 2.98781 6.20106 3.07376 6.11511C3.15972 6.02915 3.20801 5.91257 3.20801 5.79102C3.20801 5.66946 3.15972 5.55288 3.07376 5.46692C2.98781 5.38097 2.87123 5.33268 2.74967 5.33268ZM8.67592 1.20768H8.24967V3.04102H9.62467V2.4021C9.62469 2.31156 9.5979 2.22305 9.54767 2.14772L9.05726 1.41164C9.01539 1.34889 8.95868 1.29744 8.89216 1.26186C8.82564 1.22628 8.75136 1.20767 8.67592 1.20768ZM2.74967 1.20768H1.83301C1.72075 1.2077 1.61239 1.24891 1.5285 1.32351C1.44461 1.39811 1.39102 1.5009 1.37788 1.61239L1.37467 1.66602V2.58268H2.74967V1.20768ZM5.04134 1.20768H3.66634V2.58268H5.04134V1.20768ZM7.33301 1.20768H5.95801V2.58268H7.33301V1.20768Z" fill="white"/>
</svg>
