<svg width="12" height="8" viewBox="0 0 12 8" fill="none" xmlns="http://www.w3.org/2000/svg">
<path fill-rule="evenodd" clip-rule="evenodd" d="M10.5 7C10.6326 7 10.7598 7.05268 10.8536 7.14645C10.9473 7.24021 11 7.36739 11 7.5C11 7.63261 10.9473 7.75979 10.8536 7.85355C10.7598 7.94732 10.6326 8 10.5 8H1C0.867395 8 0.740218 7.94732 0.64645 7.85355C0.552682 7.75979 0.500003 7.63261 0.500003 7.5C0.500003 7.36739 0.552682 7.24021 0.64645 7.14645C0.740218 7.05268 0.867395 7 1 7H10.5ZM6 0.5C7.612 0.5 8.971 1.0375 9.934 1.7945C10.8795 2.5375 11.5 3.5425 11.5 4.5C11.5 4.921 11.371 5.28 11.1435 5.57C10.922 5.853 10.6265 6.045 10.3255 6.177C9.7325 6.436 9.027 6.5 8.5 6.5H1.497C1.36584 6.49993 1.23598 6.474 1.11485 6.42369C0.993724 6.37337 0.883708 6.29966 0.791102 6.20678C0.698496 6.11389 0.625118 6.00366 0.575167 5.88238C0.525216 5.7611 0.499674 5.63116 0.500003 5.5V1.5C0.500003 0.9495 0.945003 0.5 1.499 0.5H6ZM3.5 1.5H1.5V3H3.5V1.5ZM6 1.5H4.5V3H6.5V1.52C6.38985 1.51108 6.27948 1.50525 6.169 1.5025L6 1.5ZM7.5 1.6915V3H9.7755C9.63316 2.84875 9.47955 2.70852 9.316 2.5805C8.835 2.2025 8.221 1.883 7.5 1.6915Z" fill="white"/>
</svg>
