<svg width="11" height="9" viewBox="0 0 11 9" fill="none" xmlns="http://www.w3.org/2000/svg">
<path d="M8.75969 3.46875C8.70125 3.46875 8.44945 3.47047 8.35857 3.47541L7.11742 3.50807L4.25527 0.03125H2.90584L4.50836 3.56779L2.41771 3.59873L1.46639 2.4375H0.346836L0.789629 4.4609C0.792852 4.4725 0.796719 4.48389 0.801016 4.49506C0.801332 4.49611 0.801332 4.49723 0.801016 4.49828C0.796594 4.50938 0.792792 4.52071 0.789629 4.53223L0.34082 6.5625H1.45328L2.42975 5.38086L4.50879 5.42748L2.90563 8.96875H4.25914L7.11656 5.49365L8.35772 5.52674C8.44988 5.53168 8.70147 5.5334 8.75861 5.5334C9.28176 5.5334 9.70973 5.46164 10.0307 5.31984C10.5751 5.08008 10.6563 4.70324 10.6563 4.5C10.6563 3.85418 9.94734 3.46875 8.75969 3.46875Z" fill="white"/>
</svg>
