<svg width="10" height="10" viewBox="0 0 10 10" fill="none" xmlns="http://www.w3.org/2000/svg">
<path d="M5.3604 0.0200515C5.46434 -0.0103072 5.57533 -0.00609984 5.67668 0.0320411C5.77803 0.070182 5.86426 0.140195 5.9224 0.231552L9.42239 5.73155C9.47052 5.80715 9.49744 5.8943 9.50034 5.98388C9.50324 6.07345 9.48201 6.16216 9.43887 6.24072C9.39574 6.31927 9.33228 6.38479 9.25514 6.43041C9.178 6.47604 9.09002 6.50009 9.00039 6.50005H5.5004C5.36779 6.50005 5.24061 6.44737 5.14684 6.3536C5.05307 6.25984 5.0004 6.13266 5.0004 6.00005V0.500051C5.0004 0.391866 5.03548 0.2866 5.1004 0.200052C5.16531 0.113503 5.25654 0.0503433 5.3604 0.0200515ZM0.595395 7.20755C0.641674 7.14339 0.702515 7.09113 0.772921 7.05506C0.843327 7.01898 0.921287 7.00013 1.0004 7.00005H9.00039C9.07981 7.00001 9.1581 7.01888 9.22878 7.05511C9.29945 7.09134 9.36048 7.14388 9.4068 7.20839C9.45313 7.27289 9.48343 7.34751 9.49518 7.42605C9.50693 7.50459 9.49981 7.58481 9.47439 7.66005C9.37089 7.96505 9.2194 8.26005 9.0414 8.52755C8.77139 8.93255 8.2659 9.50005 7.5004 9.50005H2.5004C1.7354 9.50005 1.2294 8.93255 0.959395 8.52755C0.778296 8.25807 0.632759 7.96632 0.526395 7.65955C0.50154 7.58412 0.494789 7.5039 0.506689 7.42537C0.518589 7.34685 0.548806 7.27223 0.594895 7.20755H0.595395ZM3.5764 1.73505C3.63394 1.64298 3.71988 1.57215 3.82124 1.53325C3.92261 1.49435 4.03387 1.48949 4.13824 1.51943C4.2426 1.54936 4.33438 1.61244 4.39972 1.69915C4.46506 1.78586 4.5004 1.89148 4.5004 2.00005V6.00005C4.5004 6.13266 4.44772 6.25984 4.35395 6.3536C4.26018 6.44737 4.133 6.50005 4.0004 6.50005H1.5004C1.41114 6.50005 1.32352 6.47616 1.24662 6.43086C1.16971 6.38556 1.10634 6.3205 1.06307 6.24244C1.01981 6.16437 0.998224 6.07615 1.00057 5.98693C1.00291 5.89771 1.02909 5.81074 1.0764 5.73505L3.5764 1.73505Z" fill="white"/>
</svg>
