<svg width="9" height="7" viewBox="0 0 9 7" fill="none" xmlns="http://www.w3.org/2000/svg">
<path d="M7.65 2.625H7.425L5.89528 0.765898C5.81094 0.663439 5.70398 0.580728 5.58233 0.523883C5.46067 0.467039 5.32742 0.437516 5.19244 0.4375H2.18433C1.81631 0.4375 1.48542 0.655293 1.34873 0.98752L0.675 2.6559C0.287437 2.75352 0 3.09271 0 3.5V5.03125C0 5.15211 0.100687 5.25 0.225 5.25H0.9C0.9 5.97488 1.50441 6.5625 2.25 6.5625C2.99559 6.5625 3.6 5.97488 3.6 5.25H5.4C5.4 5.97488 6.00441 6.5625 6.75 6.5625C7.49559 6.5625 8.1 5.97488 8.1 5.25H8.775C8.89931 5.25 9 5.15211 9 5.03125V3.9375C9 3.21262 8.39559 2.625 7.65 2.625ZM2.25 5.90625C1.87777 5.90625 1.575 5.61189 1.575 5.25C1.575 4.88811 1.87777 4.59375 2.25 4.59375C2.62223 4.59375 2.925 4.88811 2.925 5.25C2.925 5.61189 2.62223 5.90625 2.25 5.90625ZM3.2625 2.625H1.64433L2.18433 1.3125H3.2625V2.625ZM3.9375 2.625V1.3125H5.19244L6.27244 2.625H3.9375ZM6.75 5.90625C6.37777 5.90625 6.075 5.61189 6.075 5.25C6.075 4.88811 6.37777 4.59375 6.75 4.59375C7.12223 4.59375 7.425 4.88811 7.425 5.25C7.425 5.61189 7.12223 5.90625 6.75 5.90625Z" fill="white"/>
</svg>
