<svg width="25" height="25" viewBox="0 0 25 25" fill="none" xmlns="http://www.w3.org/2000/svg">
<path d="M12.5003 4.16666C7.8972 4.16666 4.16699 7.89791 4.16699 12.5C4.16699 17.1021 7.8972 20.8333 12.5003 20.8333C17.1035 20.8333 20.8337 17.1021 20.8337 12.5C20.8337 7.89791 17.1035 4.16666 12.5003 4.16666ZM16.3618 14.8885C16.5571 15.0839 16.6668 15.3488 16.6668 15.625C16.6668 15.9012 16.5571 16.1661 16.3618 16.3615C16.1665 16.5568 15.9016 16.6665 15.6253 16.6665C15.3491 16.6665 15.0842 16.5568 14.8889 16.3615L12.5003 13.9729L10.1118 16.3615C10.0153 16.4585 9.90052 16.5356 9.77413 16.5881C9.64774 16.6407 9.51221 16.6677 9.37533 16.6677C9.23844 16.6677 9.10291 16.6407 8.97652 16.5881C8.85013 16.5356 8.73538 16.4585 8.63887 16.3615C8.54205 16.2648 8.46524 16.15 8.41283 16.0236C8.36042 15.8973 8.33345 15.7618 8.33345 15.625C8.33345 15.4882 8.36042 15.3527 8.41283 15.2264C8.46524 15.1 8.54205 14.9852 8.63887 14.8885L11.0274 12.5L8.63887 10.1115C8.44355 9.91613 8.33382 9.65122 8.33382 9.375C8.33382 9.09877 8.44355 8.83386 8.63887 8.63854C8.83419 8.44322 9.0991 8.33349 9.37533 8.33349C9.65155 8.33349 9.91646 8.44322 10.1118 8.63854L12.5003 11.0271L14.8889 8.63854C15.0842 8.44322 15.3491 8.33349 15.6253 8.33349C15.9016 8.33349 16.1665 8.44322 16.3618 8.63854C16.5571 8.83386 16.6668 9.09877 16.6668 9.375C16.6668 9.65122 16.5571 9.91613 16.3618 10.1115L13.9732 12.5L16.3618 14.8885Z" fill="white"/>
</svg>
