<svg width="50" height="50" viewBox="0 0 50 50" fill="none" xmlns="http://www.w3.org/2000/svg">
<circle cx="25" cy="25" r="25" fill="#D9D9D9"/>
<path d="M36.6168 34.4906L30.9495 28.8232C32.3139 27.0068 33.0505 24.7958 33.048 22.524C33.048 16.7211 28.3269 12 22.524 12C16.7211 12 12 16.7211 12 22.524C12 28.3269 16.7211 33.048 22.524 33.048C24.7958 33.0505 27.0068 32.3139 28.8232 30.9495L34.4906 36.6168C34.7775 36.8733 35.1516 37.0102 35.5363 36.9994C35.9209 36.9886 36.2869 36.831 36.5589 36.5589C36.831 36.2869 36.9886 35.9209 36.9994 35.5363C37.0102 35.1516 36.8733 34.7775 36.6168 34.4906ZM15.0069 22.524C15.0069 21.0372 15.4477 19.5839 16.2737 18.3477C17.0997 17.1115 18.2737 16.148 19.6473 15.5791C21.0209 15.0101 22.5323 14.8612 23.9905 15.1513C25.4487 15.4413 26.7881 16.1573 27.8394 17.2086C28.8907 18.2599 29.6067 19.5993 29.8967 21.0575C30.1868 22.5157 30.0379 24.0271 29.4689 25.4007C28.9 26.7743 27.9365 27.9483 26.7003 28.7743C25.4641 29.6003 24.0108 30.0411 22.524 30.0411C20.5311 30.0388 18.6204 29.246 17.2112 27.8368C15.802 26.4276 15.0092 24.5169 15.0069 22.524Z" fill="#938E8E"/>
</svg>
