<svg width="38" height="38" viewBox="0 0 38 38" fill="none" xmlns="http://www.w3.org/2000/svg">
<path d="M33.895 31.275L26.9117 24.2918C28.593 22.0536 29.5006 19.3293 29.4975 16.53C29.4975 9.37977 23.6802 3.5625 16.53 3.5625C9.37977 3.5625 3.5625 9.37977 3.5625 16.53C3.5625 23.6802 9.37977 29.4975 16.53 29.4975C19.3293 29.5006 22.0536 28.593 24.2918 26.9117L31.275 33.895C31.6285 34.211 32.0896 34.3796 32.5635 34.3664C33.0375 34.3531 33.4884 34.1589 33.8236 33.8236C34.1589 33.4884 34.3531 33.0375 34.3664 32.5635C34.3796 32.0896 34.211 31.6285 33.895 31.275ZM7.2675 16.53C7.2675 14.6981 7.81074 12.9072 8.82851 11.384C9.84629 9.86082 11.2929 8.67362 12.9854 7.97257C14.6779 7.27151 16.5403 7.08808 18.337 7.44548C20.1338 7.80287 21.7842 8.68504 23.0796 9.98042C24.375 11.2758 25.2571 12.9262 25.6145 14.723C25.9719 16.5197 25.7885 18.3821 25.0874 20.0746C24.3864 21.7671 23.1992 23.2137 21.676 24.2315C20.1528 25.2493 18.3619 25.7925 16.53 25.7925C14.0743 25.7896 11.7201 24.8127 9.98368 23.0763C8.24726 21.3399 7.27045 18.9857 7.2675 16.53Z" fill="#3D3C3C"/>
</svg>
